<svg width="189" height="272" viewBox="0 0 189 272" fill="none" xmlns="http://www.w3.org/2000/svg">
<g clip-path="url(#clip0_4_95)">
<mask id="mask0_4_95" style="mask-type:luminance" maskUnits="userSpaceOnUse" x="0" y="0" width="189" height="272">
<path d="M189 0H0V272H189V0Z" fill="white"/>
</mask>
<g mask="url(#mask0_4_95)">
<path d="M63.7119 230.323C112.901 230.323 152.924 190.308 152.924 141.111C152.924 91.9134 112.901 51.9072 63.7119 51.9072C14.5226 51.9072 -25.5 91.9215 -25.5 141.119C-25.5 190.317 14.5226 230.323 63.7119 230.323ZM63.7119 53.6994C111.916 53.6994 151.132 92.9149 151.132 141.119C151.132 189.324 111.916 228.539 63.7119 228.539C15.5076 228.539 -23.7078 189.324 -23.7078 141.119C-23.7078 92.9149 15.5076 53.6994 63.7119 53.6994Z" fill="#990000" stroke="#990000"/>
<path d="M90.7535 245.12L59.4813 236.74L51.0936 205.46L73.9944 182.567L105.267 190.947L113.646 222.227L90.7535 245.12Z" fill="#a9a9a9"/>
<g opacity="0.5">
<path d="M88.4993 271.638L111.719 248.419L111.661 248.198L103.225 216.706L103.004 216.649L71.5116 208.212L48.2923 231.431L48.3494 231.652L56.7861 263.144L57.0067 263.202L88.4993 271.638ZM110.837 248.182L88.2625 270.756L57.4232 262.491L49.158 231.652L71.7321 209.078L102.571 217.343L110.837 248.182Z" fill="#990000" fill-opacity="0.7"/>
<path d="M88.3699 272.121L88.6487 272.196L88.8528 271.992L112.073 248.773L112.275 248.57L112.203 248.292L112.145 248.071L112.144 248.069L103.708 216.577L103.632 216.295L103.35 216.222L103.133 216.166L103.129 216.165L71.641 207.729L71.3622 207.654L71.158 207.858L47.9387 231.077L47.7367 231.279L47.8082 231.556L47.8653 231.777L47.8664 231.781L56.3031 263.273L56.3782 263.554L56.659 263.628L56.8773 263.685L56.8796 263.686L88.3699 272.121ZM110.279 248.033L88.1131 270.198L57.8314 262.083L49.7157 231.801L71.8815 209.636L102.163 217.751L110.279 248.033Z" stroke="#990000" stroke-opacity="0.7"/>
</g>
<path d="M117.591 95.2109L152.84 146.215L188.09 95.2109H117.591Z" fill="#a9a9a9"/>
</g>
</g>
<defs>
<clipPath id="clip0_4_95">
<rect width="189" height="272" fill="white"/>
</clipPath>
</defs>
</svg>
