<svg width="101" height="216" viewBox="0 0 101 216" fill="none" xmlns="http://www.w3.org/2000/svg">
<mask id="mask0_1_6" style="mask-type:luminance" maskUnits="userSpaceOnUse" x="0" y="0" width="101" height="102">
<path d="M101 0.441559H0V101.442H101V0.441559Z" fill="white"/>
</mask>
<g mask="url(#mask0_1_6)">
<path d="M4.3638 98.1913C4.3638 96.9863 3.38693 96.0094 2.1819 96.0094C0.97687 96.0094 0 96.9863 0 98.1913C0 99.3964 0.97687 100.373 2.1819 100.373C3.38693 100.373 4.3638 99.3964 4.3638 98.1913Z" fill="#9900001f"/>
<path d="M4.36381 41.0252C4.36381 39.8202 3.38693 38.8433 2.1819 38.8433C0.976872 38.8433 0 39.8202 0 41.0252C0 42.2302 0.976872 43.2071 2.1819 43.2071C3.38693 43.2071 4.36381 42.2302 4.36381 41.0252Z" fill="#9900001f"/>
<path d="M23.5645 98.1913C23.5645 96.9863 22.5877 96.0094 21.3826 96.0094C20.1776 96.0094 19.2007 96.9863 19.2007 98.1913C19.2007 99.3964 20.1776 100.373 21.3826 100.373C22.5877 100.373 23.5645 99.3964 23.5645 98.1913Z" fill="#9900001f"/>
<path d="M23.5646 41.0252C23.5646 39.8202 22.5877 38.8433 21.3826 38.8433C20.1776 38.8433 19.2007 39.8202 19.2007 41.0252C19.2007 42.2302 20.1776 43.2071 21.3826 43.2071C22.5877 43.2071 23.5646 42.2302 23.5646 41.0252Z" fill="#9900001f"/>
<path d="M42.7653 98.1913C42.7653 96.9863 41.7884 96.0094 40.5834 96.0094C39.3784 96.0094 38.4015 96.9863 38.4015 98.1913C38.4015 99.3964 39.3784 100.373 40.5834 100.373C41.7884 100.373 42.7653 99.3964 42.7653 98.1913Z" fill="#9900001f"/>
<path d="M42.7653 41.0252C42.7653 39.8202 41.7884 38.8433 40.5834 38.8433C39.3784 38.8433 38.4015 39.8202 38.4015 41.0252C38.4015 42.2302 39.3784 43.2071 40.5834 43.2071C41.7884 43.2071 42.7653 42.2302 42.7653 41.0252Z" fill="#9900001f"/>
<path d="M61.966 98.1913C61.966 96.9863 60.9892 96.0094 59.7841 96.0094C58.5791 96.0094 57.6022 96.9863 57.6022 98.1913C57.6022 99.3964 58.5791 100.373 59.7841 100.373C60.9892 100.373 61.966 99.3964 61.966 98.1913Z" fill="#9900001f"/>
<path d="M61.966 41.0252C61.966 39.8202 60.9892 38.8433 59.7841 38.8433C58.5791 38.8433 57.6022 39.8202 57.6022 41.0252C57.6022 42.2302 58.5791 43.2071 59.7841 43.2071C60.9892 43.2071 61.966 42.2302 61.966 41.0252Z" fill="#9900001f"/>
<path d="M81.1668 98.1907C81.1668 96.9856 80.1899 96.0088 78.9849 96.0088C77.7798 96.0088 76.803 96.9856 76.803 98.1907C76.803 99.3957 77.7798 100.373 78.9849 100.373C80.1899 100.373 81.1668 99.3957 81.1668 98.1907Z" fill="#9900001f"/>
<path d="M100.117 98.1907C100.117 96.9856 99.1401 96.0088 97.9351 96.0088C96.7301 96.0088 95.7532 96.9856 95.7532 98.1907C95.7532 99.3957 96.7301 100.373 97.9351 100.373C99.1401 100.373 100.117 99.3957 100.117 98.1907Z" fill="#9900001f"/>
<path d="M81.1668 41.0249C81.1668 39.8199 80.1899 38.843 78.9849 38.843C77.7798 38.843 76.803 39.8199 76.803 41.0249C76.803 42.23 77.7798 43.2068 78.9849 43.2068C80.1899 43.2068 81.1668 42.23 81.1668 41.0249Z" fill="#9900001f"/>
<path d="M100.117 41.0249C100.117 39.8199 99.1401 38.843 97.9351 38.843C96.7301 38.843 95.7532 39.8199 95.7532 41.0249C95.7532 42.23 96.7301 43.2068 97.9351 43.2068C99.1401 43.2068 100.117 42.23 100.117 41.0249Z" fill="#9900001f"/>
<path d="M4.3638 78.9906C4.3638 77.7855 3.38693 76.8087 2.1819 76.8087C0.97687 76.8087 0 77.7855 0 78.9906C0 80.1956 0.97687 81.1725 2.1819 81.1725C3.38693 81.1725 4.3638 80.1956 4.3638 78.9906Z" fill="#9900001f"/>
<path d="M4.3638 21.8243C4.3638 20.6193 3.38693 19.6424 2.1819 19.6424C0.976871 19.6424 0 20.6193 0 21.8243C0 23.0293 0.976871 24.0062 2.1819 24.0062C3.38693 24.0062 4.3638 23.0293 4.3638 21.8243Z" fill="#9900001f"/>
<path d="M23.5645 78.9906C23.5645 77.7855 22.5877 76.8087 21.3826 76.8087C20.1776 76.8087 19.2007 77.7855 19.2007 78.9906C19.2007 80.1956 20.1776 81.1725 21.3826 81.1725C22.5877 81.1725 23.5645 80.1956 23.5645 78.9906Z" fill="#9900001f"/>
<path d="M23.5645 21.8243C23.5645 20.6193 22.5877 19.6424 21.3826 19.6424C20.1776 19.6424 19.2007 20.6193 19.2007 21.8243C19.2007 23.0293 20.1776 24.0062 21.3826 24.0062C22.5877 24.0062 23.5645 23.0293 23.5645 21.8243Z" fill="#9900001f"/>
<path d="M42.7653 78.9906C42.7653 77.7855 41.7884 76.8087 40.5834 76.8087C39.3784 76.8087 38.4015 77.7855 38.4015 78.9906C38.4015 80.1956 39.3784 81.1725 40.5834 81.1725C41.7884 81.1725 42.7653 80.1956 42.7653 78.9906Z" fill="#9900001f"/>
<path d="M42.7653 21.8243C42.7653 20.6193 41.7884 19.6424 40.5834 19.6424C39.3784 19.6424 38.4015 20.6193 38.4015 21.8243C38.4015 23.0293 39.3784 24.0062 40.5834 24.0062C41.7884 24.0062 42.7653 23.0293 42.7653 21.8243Z" fill="#9900001f"/>
<path d="M61.966 78.9906C61.966 77.7855 60.9892 76.8087 59.7841 76.8087C58.5791 76.8087 57.6022 77.7855 57.6022 78.9906C57.6022 80.1956 58.5791 81.1725 59.7841 81.1725C60.9892 81.1725 61.966 80.1956 61.966 78.9906Z" fill="#9900001f"/>
<path d="M61.966 21.8243C61.966 20.6193 60.9892 19.6424 59.7841 19.6424C58.5791 19.6424 57.6022 20.6193 57.6022 21.8243C57.6022 23.0293 58.5791 24.0062 59.7841 24.0062C60.9892 24.0062 61.966 23.0293 61.966 21.8243Z" fill="#9900001f"/>
<path d="M81.1668 78.9906C81.1668 77.7855 80.1899 76.8087 78.9849 76.8087C77.7798 76.8087 76.803 77.7855 76.803 78.9906C76.803 80.1956 77.7798 81.1725 78.9849 81.1725C80.1899 81.1725 81.1668 80.1956 81.1668 78.9906Z" fill="#9900001f"/>
<path d="M100.117 78.9906C100.117 77.7855 99.1401 76.8087 97.9351 76.8087C96.7301 76.8087 95.7532 77.7855 95.7532 78.9906C95.7532 80.1956 96.7301 81.1725 97.9351 81.1725C99.1401 81.1725 100.117 80.1956 100.117 78.9906Z" fill="#9900001f"/>
<path d="M81.1668 21.8243C81.1668 20.6193 80.1899 19.6424 78.9849 19.6424C77.7798 19.6424 76.803 20.6193 76.803 21.8243C76.803 23.0293 77.7798 24.0062 78.9849 24.0062C80.1899 24.0062 81.1668 23.0293 81.1668 21.8243Z" fill="#9900001f"/>
<path d="M100.117 21.8243C100.117 20.6193 99.1401 19.6424 97.9351 19.6424C96.7301 19.6424 95.7532 20.6193 95.7532 21.8243C95.7532 23.0293 96.7301 24.0062 97.9351 24.0062C99.1401 24.0062 100.117 23.0293 100.117 21.8243Z" fill="#9900001f"/>
<path d="M4.36381 59.7896C4.36381 58.5845 3.38693 57.6077 2.1819 57.6077C0.97687 57.6077 0 58.5845 0 59.7896C0 60.9946 0.97687 61.9715 2.1819 61.9715C3.38693 61.9715 4.36381 60.9946 4.36381 59.7896Z" fill="#9900001f"/>
<path d="M4.3638 2.62345C4.3638 1.41842 3.38693 0.441544 2.1819 0.441544C0.976871 0.441544 0 1.41842 0 2.62345C0 3.82848 0.976871 4.80535 2.1819 4.80535C3.38693 4.80535 4.3638 3.82848 4.3638 2.62345Z" fill="#9900001f"/>
<path d="M23.5646 59.7895C23.5646 58.5845 22.5877 57.6076 21.3826 57.6076C20.1776 57.6076 19.2007 58.5845 19.2007 59.7895C19.2007 60.9946 20.1776 61.9715 21.3826 61.9715C22.5877 61.9715 23.5646 60.9946 23.5646 59.7895Z" fill="#9900001f"/>
<path d="M23.5645 2.62345C23.5645 1.41842 22.5877 0.441544 21.3826 0.441544C20.1776 0.441544 19.2007 1.41842 19.2007 2.62345C19.2007 3.82848 20.1776 4.80535 21.3826 4.80535C22.5877 4.80535 23.5645 3.82848 23.5645 2.62345Z" fill="#9900001f"/>
<path d="M42.7653 59.7896C42.7653 58.5845 41.7884 57.6077 40.5834 57.6077C39.3784 57.6077 38.4015 58.5845 38.4015 59.7896C38.4015 60.9946 39.3784 61.9715 40.5834 61.9715C41.7884 61.9715 42.7653 60.9946 42.7653 59.7896Z" fill="#9900001f"/>
<path d="M42.7653 2.62345C42.7653 1.41842 41.7884 0.441544 40.5834 0.441544C39.3784 0.441544 38.4015 1.41842 38.4015 2.62345C38.4015 3.82848 39.3784 4.80535 40.5834 4.80535C41.7884 4.80535 42.7653 3.82848 42.7653 2.62345Z" fill="#9900001f"/>
<path d="M61.966 59.7896C61.966 58.5845 60.9892 57.6077 59.7841 57.6077C58.5791 57.6077 57.6022 58.5845 57.6022 59.7896C57.6022 60.9946 58.5791 61.9715 59.7841 61.9715C60.9892 61.9715 61.966 60.9946 61.966 59.7896Z" fill="#9900001f"/>
<path d="M61.966 2.62347C61.966 1.41844 60.9892 0.441574 59.7841 0.441574C58.5791 0.441574 57.6022 1.41844 57.6022 2.62347C57.6022 3.8285 58.5791 4.80537 59.7841 4.80537C60.9892 4.80537 61.966 3.8285 61.966 2.62347Z" fill="#9900001f"/>
<path d="M81.1668 59.7899C81.1668 58.5849 80.1899 57.608 78.9849 57.608C77.7798 57.608 76.803 58.5849 76.803 59.7899C76.803 60.995 77.7798 61.9718 78.9849 61.9718C80.1899 61.9718 81.1668 60.995 81.1668 59.7899Z" fill="#9900001f"/>
<path d="M100.117 59.7899C100.117 58.5849 99.1401 57.608 97.9351 57.608C96.7301 57.608 95.7532 58.5849 95.7532 59.7899C95.7532 60.995 96.7301 61.9718 97.9351 61.9718C99.1401 61.9718 100.117 60.995 100.117 59.7899Z" fill="#9900001f"/>
<path d="M81.1668 2.62383C81.1668 1.4188 80.1899 0.441925 78.9849 0.441925C77.7798 0.441925 76.803 1.4188 76.803 2.62383C76.803 3.82886 77.7798 4.80573 78.9849 4.80573C80.1899 4.80573 81.1668 3.82886 81.1668 2.62383Z" fill="#9900001f"/>
<path d="M100.117 2.62382C100.117 1.41879 99.1401 0.441925 97.9351 0.441925C96.7301 0.441925 95.7532 1.41879 95.7532 2.62382C95.7532 3.82885 96.7301 4.80572 97.9351 4.80572C99.1401 4.80572 100.117 3.82885 100.117 2.62382Z" fill="#9900001f"/>
</g>
<mask id="mask1_1_6" style="mask-type:luminance" maskUnits="userSpaceOnUse" x="0" y="114" width="101" height="102">
<path d="M101 114.558H0V215.558H101V114.558Z" fill="white"/>
</mask>
<g mask="url(#mask1_1_6)">
<path d="M4.3638 212.308C4.3638 211.103 3.38693 210.126 2.1819 210.126C0.97687 210.126 0 211.103 0 212.308C0 213.513 0.97687 214.49 2.1819 214.49C3.38693 214.49 4.3638 213.513 4.3638 212.308Z" fill="#9900001f"/>
<path d="M4.36381 155.142C4.36381 153.937 3.38693 152.96 2.1819 152.96C0.976872 152.96 0 153.937 0 155.142C0 156.347 0.976872 157.324 2.1819 157.324C3.38693 157.324 4.36381 156.347 4.36381 155.142Z" fill="#9900001f"/>
<path d="M23.5645 212.308C23.5645 211.103 22.5877 210.126 21.3826 210.126C20.1776 210.126 19.2007 211.103 19.2007 212.308C19.2007 213.513 20.1776 214.49 21.3826 214.49C22.5877 214.49 23.5645 213.513 23.5645 212.308Z" fill="#9900001f"/>
<path d="M23.5646 155.142C23.5646 153.937 22.5877 152.96 21.3826 152.96C20.1776 152.96 19.2007 153.937 19.2007 155.142C19.2007 156.347 20.1776 157.324 21.3826 157.324C22.5877 157.324 23.5646 156.347 23.5646 155.142Z" fill="#9900001f"/>
<path d="M42.7653 212.308C42.7653 211.103 41.7884 210.126 40.5834 210.126C39.3784 210.126 38.4015 211.103 38.4015 212.308C38.4015 213.513 39.3784 214.49 40.5834 214.49C41.7884 214.49 42.7653 213.513 42.7653 212.308Z" fill="#9900001f"/>
<path d="M42.7653 155.142C42.7653 153.937 41.7884 152.96 40.5834 152.96C39.3784 152.96 38.4015 153.937 38.4015 155.142C38.4015 156.347 39.3784 157.324 40.5834 157.324C41.7884 157.324 42.7653 156.347 42.7653 155.142Z" fill="#9900001f"/>
<path d="M61.966 212.308C61.966 211.103 60.9892 210.126 59.7841 210.126C58.5791 210.126 57.6022 211.103 57.6022 212.308C57.6022 213.513 58.5791 214.49 59.7841 214.49C60.9892 214.49 61.966 213.513 61.966 212.308Z" fill="#9900001f"/>
<path d="M61.966 155.142C61.966 153.937 60.9892 152.96 59.7841 152.96C58.5791 152.96 57.6022 153.937 57.6022 155.142C57.6022 156.347 58.5791 157.324 59.7841 157.324C60.9892 157.324 61.966 156.347 61.966 155.142Z" fill="#9900001f"/>
<path d="M81.1668 212.308C81.1668 211.103 80.1899 210.126 78.9849 210.126C77.7798 210.126 76.803 211.103 76.803 212.308C76.803 213.513 77.7798 214.489 78.9849 214.489C80.1899 214.489 81.1668 213.513 81.1668 212.308Z" fill="#9900001f"/>
<path d="M100.117 212.308C100.117 211.103 99.1401 210.126 97.9351 210.126C96.7301 210.126 95.7532 211.103 95.7532 212.308C95.7532 213.513 96.7301 214.489 97.9351 214.489C99.1401 214.489 100.117 213.513 100.117 212.308Z" fill="#9900001f"/>
<path d="M81.1668 155.142C81.1668 153.937 80.1899 152.96 78.9849 152.96C77.7798 152.96 76.803 153.937 76.803 155.142C76.803 156.347 77.7798 157.324 78.9849 157.324C80.1899 157.324 81.1668 156.347 81.1668 155.142Z" fill="#9900001f"/>
<path d="M100.117 155.142C100.117 153.937 99.1401 152.96 97.9351 152.96C96.7301 152.96 95.7532 153.937 95.7532 155.142C95.7532 156.347 96.7301 157.324 97.9351 157.324C99.1401 157.324 100.117 156.347 100.117 155.142Z" fill="#9900001f"/>
<path d="M4.3638 193.107C4.3638 191.902 3.38693 190.926 2.1819 190.926C0.97687 190.926 0 191.902 0 193.107C0 194.312 0.97687 195.289 2.1819 195.289C3.38693 195.289 4.3638 194.312 4.3638 193.107Z" fill="#9900001f"/>
<path d="M4.3638 135.941C4.3638 134.736 3.38693 133.759 2.1819 133.759C0.976871 133.759 0 134.736 0 135.941C0 137.146 0.976871 138.123 2.1819 138.123C3.38693 138.123 4.3638 137.146 4.3638 135.941Z" fill="#9900001f"/>
<path d="M23.5645 193.107C23.5645 191.902 22.5877 190.926 21.3826 190.926C20.1776 190.926 19.2007 191.902 19.2007 193.107C19.2007 194.312 20.1776 195.289 21.3826 195.289C22.5877 195.289 23.5645 194.312 23.5645 193.107Z" fill="#9900001f"/>
<path d="M23.5645 135.941C23.5645 134.736 22.5877 133.759 21.3826 133.759C20.1776 133.759 19.2007 134.736 19.2007 135.941C19.2007 137.146 20.1776 138.123 21.3826 138.123C22.5877 138.123 23.5645 137.146 23.5645 135.941Z" fill="#9900001f"/>
<path d="M42.7653 193.107C42.7653 191.902 41.7884 190.926 40.5834 190.926C39.3784 190.926 38.4015 191.902 38.4015 193.107C38.4015 194.312 39.3784 195.289 40.5834 195.289C41.7884 195.289 42.7653 194.312 42.7653 193.107Z" fill="#9900001f"/>
<path d="M42.7653 135.941C42.7653 134.736 41.7884 133.759 40.5834 133.759C39.3784 133.759 38.4015 134.736 38.4015 135.941C38.4015 137.146 39.3784 138.123 40.5834 138.123C41.7884 138.123 42.7653 137.146 42.7653 135.941Z" fill="#9900001f"/>
<path d="M61.966 193.107C61.966 191.902 60.9892 190.926 59.7841 190.926C58.5791 190.926 57.6022 191.902 57.6022 193.107C57.6022 194.312 58.5791 195.289 59.7841 195.289C60.9892 195.289 61.966 194.312 61.966 193.107Z" fill="#9900001f"/>
<path d="M61.966 135.941C61.966 134.736 60.9892 133.759 59.7841 133.759C58.5791 133.759 57.6022 134.736 57.6022 135.941C57.6022 137.146 58.5791 138.123 59.7841 138.123C60.9892 138.123 61.966 137.146 61.966 135.941Z" fill="#9900001f"/>
<path d="M81.1668 193.107C81.1668 191.902 80.1899 190.926 78.9849 190.926C77.7798 190.926 76.803 191.902 76.803 193.107C76.803 194.312 77.7798 195.289 78.9849 195.289C80.1899 195.289 81.1668 194.312 81.1668 193.107Z" fill="#9900001f"/>
<path d="M100.117 193.107C100.117 191.902 99.1401 190.926 97.9351 190.926C96.7301 190.926 95.7532 191.902 95.7532 193.107C95.7532 194.312 96.7301 195.289 97.9351 195.289C99.1401 195.289 100.117 194.312 100.117 193.107Z" fill="#9900001f"/>
<path d="M81.1668 135.941C81.1668 134.736 80.1899 133.759 78.9849 133.759C77.7798 133.759 76.803 134.736 76.803 135.941C76.803 137.146 77.7798 138.123 78.9849 138.123C80.1899 138.123 81.1668 137.146 81.1668 135.941Z" fill="#9900001f"/>
<path d="M100.117 135.941C100.117 134.736 99.1401 133.759 97.9351 133.759C96.7301 133.759 95.7532 134.736 95.7532 135.941C95.7532 137.146 96.7301 138.123 97.9351 138.123C99.1401 138.123 100.117 137.146 100.117 135.941Z" fill="#9900001f"/>
<path d="M4.36381 173.906C4.36381 172.701 3.38693 171.725 2.1819 171.725C0.97687 171.725 0 172.701 0 173.906C0 175.111 0.97687 176.088 2.1819 176.088C3.38693 176.088 4.36381 175.111 4.36381 173.906Z" fill="#9900001f"/>
<path d="M4.3638 116.74C4.3638 115.535 3.38693 114.558 2.1819 114.558C0.976871 114.558 0 115.535 0 116.74C0 117.945 0.976871 118.922 2.1819 118.922C3.38693 118.922 4.3638 117.945 4.3638 116.74Z" fill="#9900001f"/>
<path d="M23.5646 173.906C23.5646 172.701 22.5877 171.725 21.3826 171.725C20.1776 171.725 19.2007 172.701 19.2007 173.906C19.2007 175.111 20.1776 176.088 21.3826 176.088C22.5877 176.088 23.5646 175.111 23.5646 173.906Z" fill="#9900001f"/>
<path d="M23.5645 116.74C23.5645 115.535 22.5877 114.558 21.3826 114.558C20.1776 114.558 19.2007 115.535 19.2007 116.74C19.2007 117.945 20.1776 118.922 21.3826 118.922C22.5877 118.922 23.5645 117.945 23.5645 116.74Z" fill="#9900001f"/>
<path d="M42.7653 173.906C42.7653 172.701 41.7884 171.725 40.5834 171.725C39.3784 171.725 38.4015 172.701 38.4015 173.906C38.4015 175.111 39.3784 176.088 40.5834 176.088C41.7884 176.088 42.7653 175.111 42.7653 173.906Z" fill="#9900001f"/>
<path d="M42.7653 116.74C42.7653 115.535 41.7884 114.558 40.5834 114.558C39.3784 114.558 38.4015 115.535 38.4015 116.74C38.4015 117.945 39.3784 118.922 40.5834 118.922C41.7884 118.922 42.7653 117.945 42.7653 116.74Z" fill="#9900001f"/>
<path d="M61.966 173.906C61.966 172.701 60.9892 171.725 59.7841 171.725C58.5791 171.725 57.6022 172.701 57.6022 173.906C57.6022 175.111 58.5791 176.088 59.7841 176.088C60.9892 176.088 61.966 175.111 61.966 173.906Z" fill="#9900001f"/>
<path d="M61.966 116.74C61.966 115.535 60.9892 114.558 59.7841 114.558C58.5791 114.558 57.6022 115.535 57.6022 116.74C57.6022 117.945 58.5791 118.922 59.7841 118.922C60.9892 118.922 61.966 117.945 61.966 116.74Z" fill="#9900001f"/>
<path d="M81.1668 173.907C81.1668 172.702 80.1899 171.725 78.9849 171.725C77.7798 171.725 76.803 172.702 76.803 173.907C76.803 175.112 77.7798 176.089 78.9849 176.089C80.1899 176.089 81.1668 175.112 81.1668 173.907Z" fill="#9900001f"/>
<path d="M100.117 173.907C100.117 172.702 99.1401 171.725 97.9351 171.725C96.7301 171.725 95.7532 172.702 95.7532 173.907C95.7532 175.112 96.7301 176.089 97.9351 176.089C99.1401 176.089 100.117 175.112 100.117 173.907Z" fill="#9900001f"/>
<path d="M81.1668 116.741C81.1668 115.536 80.1899 114.559 78.9849 114.559C77.7798 114.559 76.803 115.536 76.803 116.741C76.803 117.946 77.7798 118.923 78.9849 118.923C80.1899 118.923 81.1668 117.946 81.1668 116.741Z" fill="#9900001f"/>
<path d="M100.117 116.741C100.117 115.536 99.1401 114.559 97.9351 114.559C96.7301 114.559 95.7532 115.536 95.7532 116.741C95.7532 117.946 96.7301 118.923 97.9351 118.923C99.1401 118.923 100.117 117.946 100.117 116.741Z" fill="#9900001f"/>
</g>
</svg>
