<svg width="24" height="24" viewBox="0 0 24 24" fill="none" xmlns="http://www.w3.org/2000/svg">
<path d="M5.56995 22.7001C3.22995 22.7001 1.24995 20.72 1.24995 18.38V12.22C1.19995 9.30005 2.27995 6.55005 4.29995 4.49005C6.31995 2.44005 9.02995 1.30005 11.95 1.30005C17.91 1.30005 22.75 6.15005 22.75 12.1V18.26C22.75 20.64 20.81 22.58 18.43 22.58C16.09 22.58 14.11 20.6 14.11 18.26V15.45C14.11 14 15.25 12.86 16.7 12.86C18.15 12.86 19.29 14 19.29 15.45V18.48C19.29 18.89 18.95 19.23 18.54 19.23C18.13 19.23 17.79 18.89 17.79 18.48V15.45C17.79 14.77 17.24 14.36 16.7 14.36C16.02 14.36 15.61 14.91 15.61 15.45V18.26C15.61 19.7901 16.9 21.08 18.43 21.08C19.96 21.08 21.25 19.7901 21.25 18.26V12.1C21.25 6.97005 17.08 2.80005 11.95 2.80005C9.43995 2.80005 7.10995 3.77005 5.36995 5.54005C3.62995 7.31005 2.69995 9.68005 2.74995 12.2V18.38C2.74995 19.91 4.03995 21.2001 5.56995 21.2001C7.09995 21.2001 8.38995 19.91 8.38995 18.38V15.57C8.38995 14.89 7.83995 14.48 7.29995 14.48C6.61995 14.48 6.20995 15.03 6.20995 15.57V18.49C6.20995 18.9 5.86995 19.24 5.45995 19.24C5.04995 19.24 4.70995 18.9 4.70995 18.49V15.57C4.70995 14.12 5.84995 12.98 7.29995 12.98C8.74995 12.98 9.88995 14.12 9.88995 15.57V18.38C9.88995 20.72 7.90995 22.7001 5.56995 22.7001Z" fill="#101010"/>
</svg>
