<svg width="67" height="51" viewBox="0 0 67 51" fill="none" xmlns="http://www.w3.org/2000/svg">
<path d="M10.8887 33.9985C9.5001 33.9985 8.37617 32.8578 8.37617 31.4485V5.97574L3.23555 7.54143C1.89889 7.94603 0.505277 7.18104 0.106623 5.83123C-0.29203 4.48313 0.461726 3.06024 1.79169 2.65564L10.1668 0.105635C10.9289 -0.122165 11.7513 0.0223345 12.3895 0.501734C13.026 0.984535 13.4012 1.74273 13.4012 2.54853V31.4485C13.4012 32.8578 12.2773 33.9985 10.8887 33.9985ZM56.9499 34.0019C50.9282 34.0019 47.5849 29.8165 47.4442 29.638C46.5816 28.5347 46.7625 26.9316 47.8496 26.0544C48.9299 25.1857 50.5011 25.3625 51.3654 26.4471C51.476 26.5814 53.4424 28.9019 56.9499 28.9019C59.7204 28.9019 61.975 26.8058 61.975 24.2269C61.975 21.648 59.7204 19.5519 56.9499 19.5519H56.1124C54.7238 19.5519 53.5999 18.4112 53.5999 17.0019C53.5999 15.5926 54.7238 14.4519 56.1124 14.4519H56.5312C59.0722 14.4519 61.1375 12.3558 61.1375 9.77694C61.1375 7.19804 59.0722 5.10193 56.5312 5.10193C53.2716 5.10193 51.4391 7.45813 51.4224 7.48193C50.5899 8.60903 49.0137 8.83854 47.9048 7.99193C46.796 7.14703 46.5698 5.54903 47.4023 4.42193C47.5347 4.24173 50.7356 0.00193507 56.5312 0.00193507C61.841 0.00193507 66.1625 4.38794 66.1625 9.77694C66.1625 12.4714 65.0821 14.916 63.3384 16.6857C65.5729 18.4809 67 21.1941 67 24.2269C67 29.6159 62.4925 34.0019 56.9499 34.0019Z" fill="#444B54"/>
<path d="M39.3621 51H24.2869C22.8983 51 21.7744 49.8593 21.7744 48.45C21.7744 37.876 27.8547 35.615 31.8798 34.1207L32.6168 33.8436C35.1477 32.8797 36.8495 30.2107 36.8495 27.2C36.8495 24.3882 34.595 22.1 31.8245 22.1C29.054 22.1 26.7995 24.3882 26.7995 27.2V28.05C26.7995 29.4593 25.6755 30.6 24.2869 30.6C22.8983 30.6 21.7744 29.4593 21.7744 28.05V27.2C21.7744 21.5747 26.2819 17 31.8245 17C37.3671 17 41.8746 21.5747 41.8746 27.2C41.8746 32.3238 38.8629 36.9138 34.3822 38.6189L33.6067 38.9096C30.322 40.1302 27.6319 41.1298 26.9603 45.9H39.3621C40.7507 45.9 41.8746 47.0407 41.8746 48.45C41.8746 49.8593 40.7507 51 39.3621 51Z" fill="#990000"/>
</svg>
