<svg width="67" height="67" viewBox="0 0 67 67" fill="none" xmlns="http://www.w3.org/2000/svg">
<path d="M33.4997 1.73291C25.0745 1.73291 16.9943 5.07981 11.0368 11.0373C5.07932 16.9948 1.73242 25.075 1.73242 33.5001C1.73242 41.9253 5.07932 50.0055 11.0368 55.963C16.9943 61.9205 25.0745 65.2674 33.4997 65.2674C41.9249 65.2674 50.005 61.9205 55.9625 55.963C61.92 50.0055 65.2669 41.9253 65.2669 33.5001C65.2669 25.075 61.92 16.9948 55.9625 11.0373C50.005 5.07981 41.9249 1.73291 33.4997 1.73291Z" fill="white"/>
<path d="M30.6118 46.7843H21.948C21.3126 46.7843 20.6773 46.4377 20.3885 45.8024C20.0997 45.2248 20.1575 44.5317 20.5618 44.0119L24.8937 38.236C27.4928 34.8283 28.879 30.5541 28.879 26.28C28.879 24.836 27.7238 23.6808 26.2799 23.6808C24.8359 23.6808 23.6807 24.836 23.6807 26.28V30.0343C23.6807 31.0162 22.9299 31.7671 21.948 31.7671C20.9661 31.7671 20.2152 31.0162 20.2152 30.0343V26.28C20.2152 22.93 22.9299 20.2153 26.2799 20.2153C29.6299 20.2153 32.3445 22.93 32.3445 26.28C32.3445 31.305 30.6695 36.2722 27.6661 40.3153L25.4135 43.3188H30.6118C31.5937 43.3188 32.3445 44.0696 32.3445 45.0515C32.3445 46.0334 31.5937 46.7843 30.6118 46.7843ZM45.0514 46.7843C44.0695 46.7843 43.3187 46.0334 43.3187 45.0515V41.586H35.2325C34.6549 41.586 34.1351 41.2972 33.7885 40.8352C33.442 40.3731 33.3842 39.7377 33.6152 39.2179L40.142 22.4102C40.6618 21.0817 41.9325 20.2153 43.3764 20.2153C45.2825 20.2153 46.842 21.7748 46.842 23.6808V45.0515C46.7842 46.0334 46.0333 46.7843 45.0514 46.7843ZM37.7739 38.1205H43.3187V23.6808L37.7739 38.1205Z" fill="#990000"/>
<path d="M33.5 0C15.0172 0 0 15.0172 0 33.5C0 51.9828 15.0172 67 33.5 67C42.4526 67 50.8853 63.5345 57.1233 57.2388L57.181 57.181V61.4552C57.181 62.4371 57.9319 63.1879 58.9138 63.1879C59.8957 63.1879 60.6466 62.4371 60.6466 61.4552V53.1957C60.6466 52.2138 59.8957 51.4629 58.9138 51.4629H50.6543C49.6724 51.4629 48.9216 52.2138 48.9216 53.1957C48.9216 54.1776 49.6724 54.9285 50.6543 54.9285H54.5241C48.8638 60.4733 41.4129 63.5345 33.5 63.5345C16.9233 63.5345 3.46552 50.0767 3.46552 33.5C3.46552 16.9233 16.9233 3.46552 33.5 3.46552C50.0767 3.46552 63.5345 16.9233 63.5345 33.5C63.5345 34.4819 64.2853 35.2328 65.2672 35.2328C66.2491 35.2328 67 34.4819 67 33.5C67 15.0172 51.925 0 33.5 0Z" fill="#444B54"/>
<path d="M63.9969 40.4893C63.4913 40.4893 63.0065 40.6901 62.6491 41.0475C62.2916 41.405 62.0908 41.8898 62.0908 42.3953C62.0908 42.9008 62.2916 43.3856 62.6491 43.7431C63.0065 44.1005 63.4913 44.3013 63.9969 44.3013C64.5024 44.3013 64.9872 44.1005 65.3446 43.7431C65.7021 43.3856 65.9029 42.9008 65.9029 42.3953C65.9029 41.8898 65.7021 41.405 65.3446 41.0475C64.9872 40.6901 64.5024 40.4893 63.9969 40.4893Z" fill="#444B54"/>
</svg>
