<svg width="67" height="67" viewBox="0 0 67 67" fill="none" xmlns="http://www.w3.org/2000/svg">
<path d="M30.6289 21.771L36.6151 5.30895C37.6682 2.42671 40.8276 0.930165 43.7098 1.98329L60.8924 8.24661C63.7746 9.29974 65.2712 12.4591 64.2181 15.3414L58.1764 31.8034C57.1787 34.6856 30.6289 21.771 30.6289 21.771Z" fill="#990000"/>
<path d="M30.6292 21.771L17.8809 56.8567L40.2736 65.0046C42.9342 66.0023 45.8718 64.7828 47.1467 62.2886L58.2322 31.8034L30.6292 21.771Z" fill="white"/>
<path d="M42.1587 67.0003C41.3273 67.0003 40.4959 66.834 39.6645 66.5569L34.5651 64.6723C33.6783 64.3398 33.2349 63.3975 33.5674 62.5661C33.9 61.6792 34.8423 61.2358 35.6737 61.5684L40.773 63.4529C41.7707 63.7855 42.8239 63.7855 43.7661 63.3421C44.7084 62.8986 45.429 62.1226 45.7615 61.1249L55.2951 34.9631C55.6277 34.0763 56.5699 33.6328 57.4013 33.9654C58.2882 34.298 58.7316 35.2402 58.399 36.0716L48.8655 62.2335C48.2003 64.0626 46.8701 65.5037 45.1518 66.2797C44.2096 66.7786 43.2119 67.0003 42.1587 67.0003Z" fill="#444B54"/>
<path d="M58.8423 31.8034C58.676 31.8034 58.4543 31.7479 58.288 31.6925C57.4012 31.36 56.9578 30.4177 57.2903 29.5863L62.6668 14.7317C63.3874 12.7363 62.3343 10.4637 60.3389 9.74317L43.1563 3.53528C41.7152 2.981 40.0524 3.36899 38.9992 4.53297C38.3895 5.19811 37.3364 5.25353 36.6713 4.64383C36.0061 4.03413 35.9507 2.981 36.5604 2.31587C38.5558 0.209618 41.5489 -0.566369 44.3203 0.431329L61.5028 6.69465C65.2165 8.08034 67.1565 12.182 65.8262 15.9511L60.4497 30.8057C60.1726 31.4154 59.5075 31.8034 58.8423 31.8034Z" fill="#444B54"/>
<path d="M37.3354 58.4088H2.41602V8.52393H37.3354C40.384 8.52393 42.8782 11.0182 42.8782 14.0667V52.866C42.8782 55.9146 40.384 58.4088 37.3354 58.4088Z" fill="white"/>
<path d="M37.3354 58.4088H2.41602V8.52393H37.3354C40.384 8.52393 42.8782 11.0182 42.8782 14.0667V52.866C42.8782 55.9146 40.384 58.4088 37.3354 58.4088Z" fill="white"/>
<path d="M37.3361 60.0719H2.41674C1.47447 60.0719 0.753906 59.3513 0.753906 58.409V8.52416C0.753906 7.58189 1.47447 6.86133 2.41674 6.86133H37.3361C41.3269 6.86133 44.5417 10.0761 44.5417 14.0669V52.8663C44.5417 56.8571 41.3269 60.0719 37.3361 60.0719ZM4.07956 56.7462H37.3361C39.4978 56.7462 41.2161 55.0279 41.2161 52.8663V14.0669C41.2161 11.9052 39.4978 10.187 37.3361 10.187H4.07956V56.7462Z" fill="#444B54"/>
<path d="M29.2985 46.2148H15.9958C15.0536 46.2148 14.333 45.4943 14.333 44.552C14.333 43.6097 15.0536 42.8892 15.9958 42.8892H29.2985C30.2407 42.8892 30.9613 43.6097 30.9613 44.552C30.9613 45.4943 30.2407 46.2148 29.2985 46.2148Z" fill="#990000"/>
<path d="M22.6481 39.2865C27.2399 39.2865 30.9623 35.5641 30.9623 30.9723C30.9623 26.3806 27.2399 22.6582 22.6481 22.6582C18.0564 22.6582 14.334 26.3806 14.334 30.9723C14.334 35.5641 18.0564 39.2865 22.6481 39.2865Z" fill="#990000"/>
</svg>
