<svg width="73" height="67" viewBox="0 0 73 67" fill="none" xmlns="http://www.w3.org/2000/svg">
<path d="M64.7858 15.5857H43.4144V2.38571C43.4144 1.31714 42.5973 0.5 41.5287 0.5H31.4715C30.403 0.5 29.5858 1.31714 29.5858 2.38571V21.2429C29.5858 22.3114 30.403 23.1286 31.4715 23.1286H41.5287C42.5973 23.1286 43.4144 22.3114 43.4144 21.2429V19.3571H64.7858C67.2373 19.3571 69.1858 21.3057 69.1858 23.7571V58.3286C69.1858 60.78 67.2373 62.7286 64.7858 62.7286H8.2144C5.76297 62.7286 3.8144 60.78 3.8144 58.3286V23.7571C3.8144 21.3057 5.76297 19.3571 8.2144 19.3571H21.4144C22.483 19.3571 23.3001 18.54 23.3001 17.4714C23.3001 16.4029 22.483 15.5857 21.4144 15.5857H8.2144C3.68868 15.5857 0.0429688 19.2314 0.0429688 23.7571V58.3286C0.0429688 62.8543 3.68868 66.5 8.2144 66.5H64.7858C69.3115 66.5 72.9573 62.8543 72.9573 58.3286V23.7571C72.9573 19.2314 69.3115 15.5857 64.7858 15.5857ZM39.643 19.3571H33.3573V4.27143H39.643V19.3571Z" fill="#444B54"/>
</svg>
