<svg width="59" height="77" viewBox="0 0 59 77" fill="none" xmlns="http://www.w3.org/2000/svg">
<path d="M53.9318 13.5114L31.9763 2.75879C30.4169 1.99316 28.5872 1.99316 27.0222 2.75879L5.06666 13.5114C3.13569 14.4572 1.91406 16.4163 1.91406 18.5668V33.9526C1.91406 49.1863 13.2803 62.7875 27.4838 68.3665C28.7787 68.8732 30.2198 68.8732 31.5147 68.3665C45.7182 62.7875 57.0844 49.1863 57.0844 33.9526V18.5668C57.0844 16.4163 55.8628 14.4572 53.9318 13.5114Z" fill="white"/>
<path d="M19.9237 66.1654C19.6084 66.1654 19.2931 66.0753 19.006 65.8952C7.42025 58.3796 0.225586 46.1408 0.225586 33.9527V18.5669C0.225586 15.7915 1.83566 13.2131 4.32396 11.9915L26.2795 1.23889C28.2949 0.253704 30.7044 0.253704 32.7198 1.23889L54.6754 11.9915C57.1637 13.2131 58.7737 15.7915 58.7737 18.5669V25.6827C58.7737 26.6173 58.0194 27.3716 57.0848 27.3716C56.1503 27.3716 55.396 26.6173 55.396 25.6827V18.5669C55.396 17.075 54.529 15.6845 53.1891 15.0259L31.2336 4.27326C30.1471 3.74407 28.8523 3.74407 27.7657 4.27326L5.81018 15.0259C4.47033 15.6845 3.60336 17.075 3.60336 18.5669V33.9527C3.60336 45.0093 10.2125 56.1616 20.8469 63.0579C21.6294 63.5645 21.8546 64.6116 21.348 65.3941C21.0214 65.8952 20.481 66.1654 19.9237 66.1654Z" fill="#444B54"/>
<path d="M29.4994 27.3153C28.5649 27.3153 27.8105 26.561 27.8105 25.6264V16.0561C27.8105 15.1216 28.5649 14.3672 29.4994 14.3672C30.434 14.3672 31.1883 15.1216 31.1883 16.0561V25.6264C31.1883 26.561 30.434 27.3153 29.4994 27.3153Z" fill="#444B54"/>
<path d="M44.1374 76.5002C35.3677 76.5002 30.4985 70.4711 30.2936 70.2139C29.0373 68.6246 29.3008 66.3153 30.884 65.0517C32.4574 63.8003 34.7456 64.055 36.0044 65.6174C36.1654 65.8108 39.0293 69.1536 44.1374 69.1536C48.1723 69.1536 51.4558 66.1341 51.4558 62.4191C51.4558 58.7042 48.1723 55.6847 44.1374 55.6847H42.9177C40.8954 55.6847 39.2586 54.0415 39.2586 52.0113C39.2586 49.9812 40.8954 48.338 42.9177 48.338H43.5276C47.2282 48.338 50.236 45.3185 50.236 41.6036C50.236 37.8886 47.2282 34.8691 43.5276 34.8691C38.7804 34.8691 36.1117 38.2633 36.0873 38.2976C34.8749 39.9212 32.5794 40.2518 30.9645 39.0322C29.3496 37.8151 29.0202 35.5132 30.2326 33.8896C30.4254 33.63 35.0871 27.5225 43.5276 27.5225C51.2606 27.5225 57.5544 33.8406 57.5544 41.6036C57.5544 45.4851 55.9809 49.0066 53.4415 51.5559C56.6957 54.1419 58.7741 58.0503 58.7741 62.4191C58.7741 70.1821 52.2095 76.5002 44.1374 76.5002Z" fill="#990000"/>
</svg>
