<svg width="51" height="57" viewBox="0 0 51 57" fill="none" xmlns="http://www.w3.org/2000/svg">
<path d="M41.3636 0.414474L34.5455 7.32237C34 7.875 34 8.75 34.5455 9.25658C35.0909 9.80921 35.9545 9.80921 36.4545 9.25658L40.9545 4.69737V24.4079C40.9545 28.7368 37.5 32.2368 33.2273 32.2368H16.8636C16.0909 32.2368 15.5 32.8355 15.5 33.6184C15.5 34.4013 16.0909 35 16.8636 35H33.2273C39 35 43.6818 30.2566 43.6818 24.4079V4.69737L48.1818 9.25658C48.4545 9.5329 48.8182 9.67105 49.1364 9.67105C49.4545 9.67105 49.8182 9.5329 50.0909 9.25658C50.6364 8.70395 50.6364 7.82895 50.0909 7.32237L43.2727 0.414474C42.7273 -0.138158 41.9091 -0.138158 41.3636 0.414474Z" fill="#990000"/>
<path d="M8 50C7.15 50 6.5 50.5687 6.5 51.3125V55.6875C6.5 56.4313 7.15 57 8 57C8.85 57 9.5 56.4313 9.5 55.6875V51.3125C9.5 50.5687 8.85 50 8 50Z" fill="#444B54"/>
<path d="M9.83333 4.675L14.2333 9.2125C14.5 9.4875 14.8556 9.625 15.1667 9.625C15.4778 9.625 15.8333 9.4875 16.1 9.2125C16.6333 8.6625 16.6333 7.79167 16.1 7.2875L9.43333 0.4125C8.9 -0.1375 8.05556 -0.1375 7.56667 0.4125L0.9 7.2875C0.366667 7.8375 0.366667 8.70833 0.9 9.2125C1.43333 9.7625 2.27778 9.7625 2.76667 9.2125L7.16667 4.675V42.625C7.16667 43.4042 7.74444 44 8.5 44C9.25556 44 9.83333 43.4042 9.83333 42.625V4.675Z" fill="#444B54"/>
</svg>
