<svg width="24" height="20" viewBox="0 0 24 20" fill="none" xmlns="http://www.w3.org/2000/svg">
<path d="M24 19.6H22.272C22.1 19.61 21.9301 19.559 21.792 19.456C21.6714 19.3561 21.5767 19.2285 21.516 19.084L20.4 16H14.4L13.2 19.048C13.1427 19.1878 13.0521 19.3114 12.936 19.408C12.8023 19.5215 12.6313 19.5814 12.456 19.576H10.8L16.26 5.81203H18.528L24 19.6ZM19.764 14.428L17.868 9.40002C17.6844 8.91315 17.5281 8.41637 17.4 7.91202C17.328 8.20802 17.252 8.48402 17.172 8.74002L16.944 9.41203L15.048 14.44L19.764 14.428ZM12.204 12.532C10.9761 12.1107 9.80361 11.5426 8.712 10.84C10.3939 9.03355 11.5587 6.80771 12.084 4.39602H14.4V2.80002H8.772C8.70878 2.57038 8.62856 2.34576 8.532 2.12802C8.244 1.34802 7.92 0.400024 7.92 0.400024L6.156 1.00002C6.156 1.00002 6.636 2.06802 6.876 2.80002H0V4.39602H2.58C3.10584 6.81761 4.28921 9.04732 6 10.84C4.14593 11.9922 2.12074 12.8428 0 13.36C0.448 14.016 0.796 14.568 1.044 15.016C3.24924 14.2767 5.35353 13.2649 7.308 12.004C8.63585 12.8909 10.0714 13.6046 11.58 14.128L12.204 12.532ZM4.356 4.39602H10.248C9.86514 6.44494 8.83457 8.31679 7.308 9.73602C5.83713 8.27227 4.81324 6.42012 4.356 4.39602Z" fill="#101010"/>
</svg>
