<svg width="24" height="24" viewBox="0 0 24 24" fill="none" xmlns="http://www.w3.org/2000/svg">
<path d="M24 7.85156V18.375C24 18.7734 23.9141 19.1328 23.7422 19.4531C23.5703 19.7734 23.3398 20.0469 23.0508 20.2734C22.7617 20.5 22.4414 20.6797 22.0898 20.8125C21.7383 20.9453 21.375 21.0078 21 21C20.6328 21 20.2695 20.9375 19.9102 20.8125C19.5508 20.6875 19.2305 20.5117 18.9492 20.2852C18.668 20.0586 18.4414 19.7812 18.2695 19.4531C18.0977 19.125 18.0078 18.7656 18 18.375C18 17.9766 18.0859 17.6172 18.2578 17.2969C18.4297 16.9766 18.6602 16.6992 18.9492 16.4648C19.2383 16.2305 19.5586 16.0547 19.9102 15.9375C20.2617 15.8203 20.625 15.7578 21 15.75C21.5156 15.75 22.0156 15.8711 22.5 16.1133V9.77344L15 11.6484V19.875C15 20.2734 14.9141 20.6328 14.7422 20.9531C14.5703 21.2734 14.3398 21.5469 14.0508 21.7734C13.7617 22 13.4414 22.1797 13.0898 22.3125C12.7383 22.4453 12.375 22.5078 12 22.5C11.6328 22.5 11.2695 22.4375 10.9102 22.3125C10.5508 22.1875 10.2305 22.0117 9.94922 21.7852C9.66797 21.5586 9.44141 21.2812 9.26953 20.9531C9.09766 20.625 9.00781 20.2656 9 19.875C9 19.4766 9.08594 19.1172 9.25781 18.7969C9.42969 18.4766 9.66016 18.1992 9.94922 17.9648C10.2383 17.7305 10.5586 17.5547 10.9102 17.4375C11.2617 17.3203 11.625 17.2578 12 17.25C12.5156 17.25 13.0156 17.3711 13.5 17.6133V10.4766L24 7.85156ZM12 21C12.1562 21 12.3203 20.9766 12.4922 20.9297C12.6641 20.8828 12.8281 20.8125 12.9844 20.7188C13.1406 20.625 13.2617 20.5078 13.3477 20.3672C13.4336 20.2266 13.4844 20.0625 13.5 19.875C13.5 19.6875 13.4531 19.5234 13.3594 19.3828C13.2656 19.2422 13.1406 19.125 12.9844 19.0312C12.8281 18.9375 12.668 18.8672 12.5039 18.8203C12.3398 18.7734 12.1719 18.75 12 18.75C11.8438 18.75 11.6797 18.7734 11.5078 18.8203C11.3359 18.8672 11.1719 18.9375 11.0156 19.0312C10.8594 19.125 10.7383 19.2422 10.6523 19.3828C10.5664 19.5234 10.5156 19.6875 10.5 19.875C10.5 20.0625 10.5469 20.2266 10.6406 20.3672C10.7344 20.5078 10.8594 20.625 11.0156 20.7188C11.1719 20.8125 11.332 20.8828 11.4961 20.9297C11.6602 20.9766 11.8281 21 12 21ZM21 19.5C21.1562 19.5 21.3203 19.4766 21.4922 19.4297C21.6641 19.3828 21.8281 19.3125 21.9844 19.2188C22.1406 19.125 22.2617 19.0078 22.3477 18.8672C22.4336 18.7266 22.4844 18.5625 22.5 18.375C22.5 18.1875 22.4531 18.0234 22.3594 17.8828C22.2656 17.7422 22.1406 17.625 21.9844 17.5312C21.8281 17.4375 21.668 17.3672 21.5039 17.3203C21.3398 17.2734 21.1719 17.25 21 17.25C20.8438 17.25 20.6797 17.2734 20.5078 17.3203C20.3359 17.3672 20.1719 17.4375 20.0156 17.5312C19.8594 17.625 19.7383 17.7422 19.6523 17.8828C19.5664 18.0234 19.5156 18.1875 19.5 18.375C19.5 18.5625 19.5469 18.7266 19.6406 18.8672C19.7344 19.0078 19.8594 19.125 20.0156 19.2188C20.1719 19.3125 20.332 19.3828 20.4961 19.4297C20.6602 19.4766 20.8281 19.5 21 19.5ZM4.5 7.5H3V6H4.5V7.5ZM3 9H4.5V10.5H3V9ZM13.5 6H15V7.5H13.5V6ZM12 15H0V1.5H18V7.5L16.5 7.875V3H15V4.5H13.5V3H4.5V4.5H3V3H1.5V13.5H3V12H4.5V13.5H12V15Z" fill="#101010"/>
</svg>
