<svg width="198" height="77" viewBox="0 0 198 77" fill="none" xmlns="http://www.w3.org/2000/svg">
<g opacity="0.5">
<path opacity="0.5" d="M5.84211 6.07896L3.63159 3.5L5.84211 0.921042C6.05263 0.675428 6.05263 0.429825 5.84211 0.184211C5.63158 -0.0614036 5.42106 -0.0614036 5.21054 0.184211L3 2.76315L0.789481 0.184211C0.578954 -0.0614036 0.368421 -0.0614036 0.157895 0.184211C-0.0526316 0.429825 -0.0526316 0.675428 0.157895 0.921042L2.36843 3.5L0.157895 6.07896C-0.0526316 6.32457 -0.0526316 6.57017 0.157895 6.81579C0.368421 7.0614 0.578954 7.0614 0.789481 6.81579L3 4.23685L5.21054 6.81579C5.42106 7.0614 5.63158 7.0614 5.84211 6.81579C6.05263 6.69298 6.05263 6.32457 5.84211 6.07896Z" fill="#213039"/>
<path opacity="0.5" d="M24.8421 6.07896L22.6316 3.5L24.8421 0.921042C25.0526 0.675428 25.0526 0.429825 24.8421 0.184211C24.6316 -0.0614036 24.421 -0.0614036 24.2105 0.184211L22 2.76315L19.7895 0.184211C19.579 -0.0614036 19.3684 -0.0614036 19.1579 0.184211C18.9474 0.429825 18.9474 0.675428 19.1579 0.921042L21.3684 3.5L19.1579 6.07896C18.9474 6.32457 18.9474 6.57017 19.1579 6.81579C19.3684 7.0614 19.579 7.0614 19.7895 6.81579L22 4.23685L24.2105 6.81579C24.421 7.0614 24.6316 7.0614 24.8421 6.81579C25.0526 6.69298 25.0526 6.32457 24.8421 6.07896Z" fill="#213039"/>
<path opacity="0.5" d="M44.8158 6.07896L42.2368 3.5L44.8158 0.921042C45.0614 0.675428 45.0614 0.429825 44.8158 0.184211C44.5702 -0.0614036 44.3246 -0.0614036 44.0789 0.184211L41.5 2.76315L38.9211 0.184211C38.6754 -0.0614036 38.4298 -0.0614036 38.1842 0.184211C37.9386 0.429825 37.9386 0.675428 38.1842 0.921042L40.7632 3.5L38.1842 6.07896C37.9386 6.32457 37.9386 6.57017 38.1842 6.81579C38.4298 7.0614 38.6754 7.0614 38.9211 6.81579L41.5 4.23685L44.0789 6.81579C44.3246 7.0614 44.5702 7.0614 44.8158 6.81579C45.0614 6.69298 45.0614 6.32457 44.8158 6.07896Z" fill="#213039"/>
<path opacity="0.5" d="M63.8421 6.07896L61.6316 3.5L63.8421 0.921042C64.0526 0.675428 64.0526 0.429825 63.8421 0.184211C63.6316 -0.0614036 63.421 -0.0614036 63.2105 0.184211L61 2.76315L58.7895 0.184211C58.5789 -0.0614036 58.3684 -0.0614036 58.1579 0.184211C57.9474 0.429825 57.9474 0.675428 58.1579 0.921042L60.3684 3.5L58.1579 6.07896C57.9474 6.32457 57.9474 6.57017 58.1579 6.81579C58.3684 7.0614 58.5789 7.0614 58.7895 6.81579L61 4.23685L63.2105 6.81579C63.421 7.0614 63.6316 7.0614 63.8421 6.81579C64.0526 6.69298 64.0526 6.32457 63.8421 6.07896Z" fill="#213039"/>
<path opacity="0.5" d="M82.8421 6.07896L80.6316 3.5L82.8421 0.921042C83.0526 0.675428 83.0526 0.429825 82.8421 0.184211C82.6316 -0.0614036 82.4211 -0.0614036 82.2105 0.184211L80 2.76315L77.7895 0.184211C77.579 -0.0614036 77.3684 -0.0614036 77.1579 0.184211C76.9474 0.429825 76.9474 0.675428 77.1579 0.921042L79.3684 3.5L77.1579 6.07896C76.9474 6.32457 76.9474 6.57017 77.1579 6.81579C77.3684 7.0614 77.579 7.0614 77.7895 6.81579L80 4.23685L82.2105 6.81579C82.4211 7.0614 82.6316 7.0614 82.8421 6.81579C83.0526 6.69298 83.0526 6.32457 82.8421 6.07896Z" fill="#213039"/>
<path opacity="0.5" d="M101.842 6.07896L99.6316 3.5L101.842 0.921042C102.053 0.675428 102.053 0.429825 101.842 0.184211C101.632 -0.0614036 101.421 -0.0614036 101.211 0.184211L99 2.76315L96.7895 0.184211C96.5789 -0.0614036 96.3684 -0.0614036 96.1579 0.184211C95.9474 0.429825 95.9474 0.675428 96.1579 0.921042L98.3684 3.5L96.1579 6.07896C95.9474 6.32457 95.9474 6.57017 96.1579 6.81579C96.3684 7.0614 96.5789 7.0614 96.7895 6.81579L99 4.23685L101.211 6.81579C101.421 7.0614 101.632 7.0614 101.842 6.81579C102.053 6.69298 102.053 6.32457 101.842 6.07896Z" fill="#213039"/>
<path opacity="0.5" d="M120.842 6.07896L118.632 3.5L120.842 0.921042C121.053 0.675428 121.053 0.429825 120.842 0.184211C120.632 -0.0614036 120.421 -0.0614036 120.211 0.184211L118 2.76315L115.789 0.184211C115.579 -0.0614036 115.368 -0.0614036 115.158 0.184211C114.947 0.429825 114.947 0.675428 115.158 0.921042L117.368 3.5L115.158 6.07896C114.947 6.32457 114.947 6.57017 115.158 6.81579C115.368 7.0614 115.579 7.0614 115.789 6.81579L118 4.23685L120.211 6.81579C120.421 7.0614 120.632 7.0614 120.842 6.81579C121.053 6.69298 121.053 6.32457 120.842 6.07896Z" fill="#213039"/>
<path opacity="0.5" d="M139.842 6.07896L137.632 3.5L139.842 0.921042C140.053 0.675428 140.053 0.429825 139.842 0.184211C139.632 -0.0614036 139.421 -0.0614036 139.211 0.184211L137 2.76315L134.789 0.184211C134.579 -0.0614036 134.368 -0.0614036 134.158 0.184211C133.947 0.429825 133.947 0.675428 134.158 0.921042L136.368 3.5L134.158 6.07896C133.947 6.32457 133.947 6.57017 134.158 6.81579C134.368 7.0614 134.579 7.0614 134.789 6.81579L137 4.23685L139.211 6.81579C139.421 7.0614 139.632 7.0614 139.842 6.81579C140.053 6.69298 140.053 6.32457 139.842 6.07896Z" fill="#213039"/>
<path opacity="0.5" d="M159.816 6.07896L157.237 3.5L159.816 0.921042C160.061 0.675428 160.061 0.429825 159.816 0.184211C159.57 -0.0614036 159.325 -0.0614036 159.079 0.184211L156.5 2.76315L153.921 0.184211C153.675 -0.0614036 153.43 -0.0614036 153.184 0.184211C152.939 0.429825 152.939 0.675428 153.184 0.921042L155.763 3.5L153.184 6.07896C152.939 6.32457 152.939 6.57017 153.184 6.81579C153.43 7.0614 153.675 7.0614 153.921 6.81579L156.5 4.23685L159.079 6.81579C159.325 7.0614 159.57 7.0614 159.816 6.81579C160.061 6.69298 160.061 6.32457 159.816 6.07896Z" fill="#213039"/>
<path opacity="0.5" d="M178.842 6.07896L176.632 3.5L178.842 0.921042C179.053 0.675428 179.053 0.429825 178.842 0.184211C178.632 -0.0614036 178.421 -0.0614036 178.211 0.184211L176 2.76315L173.789 0.184211C173.579 -0.0614036 173.368 -0.0614036 173.158 0.184211C172.947 0.429825 172.947 0.675428 173.158 0.921042L175.368 3.5L173.158 6.07896C172.947 6.32457 172.947 6.57017 173.158 6.81579C173.368 7.0614 173.579 7.0614 173.789 6.81579L176 4.23685L178.211 6.81579C178.421 7.0614 178.632 7.0614 178.842 6.81579C179.053 6.69298 179.053 6.32457 178.842 6.07896Z" fill="#213039"/>
<path opacity="0.5" d="M197.842 6.07896L195.632 3.5L197.842 0.921042C198.053 0.675428 198.053 0.429825 197.842 0.184211C197.632 -0.0614036 197.421 -0.0614036 197.211 0.184211L195 2.76315L192.789 0.184211C192.579 -0.0614036 192.368 -0.0614036 192.158 0.184211C191.947 0.429825 191.947 0.675428 192.158 0.921042L194.368 3.5L192.158 6.07896C191.947 6.32457 191.947 6.57017 192.158 6.81579C192.368 7.0614 192.579 7.0614 192.789 6.81579L195 4.23685L197.211 6.81579C197.421 7.0614 197.632 7.0614 197.842 6.81579C198.053 6.57017 198.053 6.32457 197.842 6.07896Z" fill="#213039"/>
<path opacity="0.5" d="M5.84211 23.9474L3.63159 21L5.84211 18.0526C6.05263 17.7719 6.05263 17.4912 5.84211 17.2105C5.63158 16.9298 5.42106 16.9298 5.21054 17.2105L3 20.1579L0.789481 17.2105C0.578954 16.9298 0.368421 16.9298 0.157895 17.2105C-0.0526316 17.4912 -0.0526316 17.7719 0.157895 18.0526L2.36843 21L0.157895 23.9474C-0.0526316 24.2281 -0.0526316 24.5088 0.157895 24.7895C0.368421 25.0702 0.578954 25.0702 0.789481 24.7895L3 21.8421L5.21054 24.7895C5.42106 25.0702 5.63158 25.0702 5.84211 24.7895C6.05263 24.5088 6.05263 24.0877 5.84211 23.9474Z" fill="#213039"/>
<path opacity="0.5" d="M24.8421 23.9474L22.6316 21L24.8421 18.0526C25.0526 17.7719 25.0526 17.4912 24.8421 17.2105C24.6316 16.9298 24.421 16.9298 24.2105 17.2105L22 20.1579L19.7895 17.2105C19.579 16.9298 19.3684 16.9298 19.1579 17.2105C18.9474 17.4912 18.9474 17.7719 19.1579 18.0526L21.3684 21L19.1579 23.9474C18.9474 24.2281 18.9474 24.5088 19.1579 24.7895C19.3684 25.0702 19.579 25.0702 19.7895 24.7895L22 21.8421L24.2105 24.7895C24.421 25.0702 24.6316 25.0702 24.8421 24.7895C25.0526 24.5088 25.0526 24.0877 24.8421 23.9474Z" fill="#213039"/>
<path opacity="0.5" d="M44.8158 23.9474L42.2368 21L44.8158 18.0526C45.0614 17.7719 45.0614 17.4912 44.8158 17.2105C44.5702 16.9298 44.3246 16.9298 44.0789 17.2105L41.5 20.1579L38.9211 17.2105C38.6754 16.9298 38.4298 16.9298 38.1842 17.2105C37.9386 17.4912 37.9386 17.7719 38.1842 18.0526L40.7632 21L38.1842 23.9474C37.9386 24.2281 37.9386 24.5088 38.1842 24.7895C38.4298 25.0702 38.6754 25.0702 38.9211 24.7895L41.5 21.8421L44.0789 24.7895C44.3246 25.0702 44.5702 25.0702 44.8158 24.7895C45.0614 24.5088 45.0614 24.0877 44.8158 23.9474Z" fill="#213039"/>
<path opacity="0.5" d="M63.8421 23.9474L61.6316 21L63.8421 18.0526C64.0526 17.7719 64.0526 17.4912 63.8421 17.2105C63.6316 16.9298 63.421 16.9298 63.2105 17.2105L61 20.1579L58.7895 17.2105C58.5789 16.9298 58.3684 16.9298 58.1579 17.2105C57.9474 17.4912 57.9474 17.7719 58.1579 18.0526L60.3684 21L58.1579 23.9474C57.9474 24.2281 57.9474 24.5088 58.1579 24.7895C58.3684 25.0702 58.5789 25.0702 58.7895 24.7895L61 21.8421L63.2105 24.7895C63.421 25.0702 63.6316 25.0702 63.8421 24.7895C64.0526 24.5088 64.0526 24.0877 63.8421 23.9474Z" fill="#213039"/>
<path opacity="0.5" d="M82.8421 23.9474L80.6316 21L82.8421 18.0526C83.0526 17.7719 83.0526 17.4912 82.8421 17.2105C82.6316 16.9298 82.4211 16.9298 82.2105 17.2105L80 20.1579L77.7895 17.2105C77.579 16.9298 77.3684 16.9298 77.1579 17.2105C76.9474 17.4912 76.9474 17.7719 77.1579 18.0526L79.3684 21L77.1579 23.9474C76.9474 24.2281 76.9474 24.5088 77.1579 24.7895C77.3684 25.0702 77.579 25.0702 77.7895 24.7895L80 21.8421L82.2105 24.7895C82.4211 25.0702 82.6316 25.0702 82.8421 24.7895C83.0526 24.5088 83.0526 24.0877 82.8421 23.9474Z" fill="#213039"/>
<path opacity="0.5" d="M101.842 23.9474L99.6316 21L101.842 18.0526C102.053 17.7719 102.053 17.4912 101.842 17.2105C101.632 16.9298 101.421 16.9298 101.211 17.2105L99 20.1579L96.7895 17.2105C96.5789 16.9298 96.3684 16.9298 96.1579 17.2105C95.9474 17.4912 95.9474 17.7719 96.1579 18.0526L98.3684 21L96.1579 23.9474C95.9474 24.2281 95.9474 24.5088 96.1579 24.7895C96.3684 25.0702 96.5789 25.0702 96.7895 24.7895L99 21.8421L101.211 24.7895C101.421 25.0702 101.632 25.0702 101.842 24.7895C102.053 24.5088 102.053 24.0877 101.842 23.9474Z" fill="#213039"/>
<path opacity="0.5" d="M120.842 23.9474L118.632 21L120.842 18.0526C121.053 17.7719 121.053 17.4912 120.842 17.2105C120.632 16.9298 120.421 16.9298 120.211 17.2105L118 20.1579L115.789 17.2105C115.579 16.9298 115.368 16.9298 115.158 17.2105C114.947 17.4912 114.947 17.7719 115.158 18.0526L117.368 21L115.158 23.9474C114.947 24.2281 114.947 24.5088 115.158 24.7895C115.368 25.0702 115.579 25.0702 115.789 24.7895L118 21.8421L120.211 24.7895C120.421 25.0702 120.632 25.0702 120.842 24.7895C121.053 24.5088 121.053 24.0877 120.842 23.9474Z" fill="#213039"/>
<path opacity="0.5" d="M139.842 23.9474L137.632 21L139.842 18.0526C140.053 17.7719 140.053 17.4912 139.842 17.2105C139.632 16.9298 139.421 16.9298 139.211 17.2105L137 20.1579L134.789 17.2105C134.579 16.9298 134.368 16.9298 134.158 17.2105C133.947 17.4912 133.947 17.7719 134.158 18.0526L136.368 21L134.158 23.9474C133.947 24.2281 133.947 24.5088 134.158 24.7895C134.368 25.0702 134.579 25.0702 134.789 24.7895L137 21.8421L139.211 24.7895C139.421 25.0702 139.632 25.0702 139.842 24.7895C140.053 24.5088 140.053 24.0877 139.842 23.9474Z" fill="#213039"/>
<path opacity="0.5" d="M159.816 23.9474L157.237 21L159.816 18.0526C160.061 17.7719 160.061 17.4912 159.816 17.2105C159.57 16.9298 159.325 16.9298 159.079 17.2105L156.5 20.1579L153.921 17.2105C153.675 16.9298 153.43 16.9298 153.184 17.2105C152.939 17.4912 152.939 17.7719 153.184 18.0526L155.763 21L153.184 23.9474C152.939 24.2281 152.939 24.5088 153.184 24.7895C153.43 25.0702 153.675 25.0702 153.921 24.7895L156.5 21.8421L159.079 24.7895C159.325 25.0702 159.57 25.0702 159.816 24.7895C160.061 24.5088 160.061 24.0877 159.816 23.9474Z" fill="#213039"/>
<path opacity="0.5" d="M178.842 23.9474L176.632 21L178.842 18.0526C179.053 17.7719 179.053 17.4912 178.842 17.2105C178.632 16.9298 178.421 16.9298 178.211 17.2105L176 20.1579L173.789 17.2105C173.579 16.9298 173.368 16.9298 173.158 17.2105C172.947 17.4912 172.947 17.7719 173.158 18.0526L175.368 21L173.158 23.9474C172.947 24.2281 172.947 24.5088 173.158 24.7895C173.368 25.0702 173.579 25.0702 173.789 24.7895L176 21.8421L178.211 24.7895C178.421 25.0702 178.632 25.0702 178.842 24.7895C179.053 24.5088 179.053 24.0877 178.842 23.9474Z" fill="#213039"/>
<path opacity="0.5" d="M197.842 23.9474L195.632 21L197.842 18.0526C198.053 17.7719 198.053 17.4912 197.842 17.2105C197.632 16.9298 197.421 16.9298 197.211 17.2105L195 20.1579L192.789 17.2105C192.579 16.9298 192.368 16.9298 192.158 17.2105C191.947 17.4912 191.947 17.7719 192.158 18.0526L194.368 21L192.158 23.9474C191.947 24.2281 191.947 24.5088 192.158 24.7895C192.368 25.0702 192.579 25.0702 192.789 24.7895L195 21.8421L197.211 24.7895C197.421 25.0702 197.632 25.0702 197.842 24.7895C198.053 24.5088 198.053 24.0877 197.842 23.9474Z" fill="#213039"/>
<path opacity="0.5" d="M5.84211 41.0789L3.63159 38.5L5.84211 35.9211C6.05263 35.6754 6.05263 35.4298 5.84211 35.1842C5.63158 34.9386 5.42106 34.9386 5.21054 35.1842L3 37.7632L0.789481 35.1842C0.578954 34.9386 0.368421 34.9386 0.157895 35.1842C-0.0526316 35.4298 -0.0526316 35.6754 0.157895 35.9211L2.36843 38.5L0.157895 41.0789C-0.0526316 41.3246 -0.0526316 41.5702 0.157895 41.8158C0.368421 42.0614 0.578954 42.0614 0.789481 41.8158L3 39.2368L5.21054 41.8158C5.42106 42.0614 5.63158 42.0614 5.84211 41.8158C6.05263 41.693 6.05263 41.3246 5.84211 41.0789Z" fill="#213039"/>
<path opacity="0.5" d="M24.8421 41.0789L22.6316 38.5L24.8421 35.9211C25.0526 35.6754 25.0526 35.4298 24.8421 35.1842C24.6316 34.9386 24.421 34.9386 24.2105 35.1842L22 37.7632L19.7895 35.1842C19.579 34.9386 19.3684 34.9386 19.1579 35.1842C18.9474 35.4298 18.9474 35.6754 19.1579 35.9211L21.3684 38.5L19.1579 41.0789C18.9474 41.3246 18.9474 41.5702 19.1579 41.8158C19.3684 42.0614 19.579 42.0614 19.7895 41.8158L22 39.2368L24.2105 41.8158C24.421 42.0614 24.6316 42.0614 24.8421 41.8158C25.0526 41.693 25.0526 41.3246 24.8421 41.0789Z" fill="#213039"/>
<path opacity="0.5" d="M44.8158 41.0789L42.2368 38.5L44.8158 35.9211C45.0614 35.6754 45.0614 35.4298 44.8158 35.1842C44.5702 34.9386 44.3246 34.9386 44.0789 35.1842L41.5 37.7632L38.9211 35.1842C38.6754 34.9386 38.4298 34.9386 38.1842 35.1842C37.9386 35.4298 37.9386 35.6754 38.1842 35.9211L40.7632 38.5L38.1842 41.0789C37.9386 41.3246 37.9386 41.5702 38.1842 41.8158C38.4298 42.0614 38.6754 42.0614 38.9211 41.8158L41.5 39.2368L44.0789 41.8158C44.3246 42.0614 44.5702 42.0614 44.8158 41.8158C45.0614 41.693 45.0614 41.3246 44.8158 41.0789Z" fill="#213039"/>
<path opacity="0.5" d="M63.8421 41.0789L61.6316 38.5L63.8421 35.9211C64.0526 35.6754 64.0526 35.4298 63.8421 35.1842C63.6316 34.9386 63.421 34.9386 63.2105 35.1842L61 37.7632L58.7895 35.1842C58.5789 34.9386 58.3684 34.9386 58.1579 35.1842C57.9474 35.4298 57.9474 35.6754 58.1579 35.9211L60.3684 38.5L58.1579 41.0789C57.9474 41.3246 57.9474 41.5702 58.1579 41.8158C58.3684 42.0614 58.5789 42.0614 58.7895 41.8158L61 39.2368L63.2105 41.8158C63.421 42.0614 63.6316 42.0614 63.8421 41.8158C64.0526 41.693 64.0526 41.3246 63.8421 41.0789Z" fill="#213039"/>
<path opacity="0.5" d="M82.8448 41.0789L80.6724 38.5L82.8448 35.9211C83.0517 35.6754 83.0517 35.4298 82.8448 35.1842C82.6379 34.9386 82.431 34.9386 82.2241 35.1842L80.0517 37.7632L77.7759 35.1842C77.569 34.9386 77.3621 34.9386 77.1552 35.1842C76.9483 35.4298 76.9483 35.6754 77.1552 35.9211L79.3276 38.5L77.1552 41.0789C76.9483 41.3246 76.9483 41.5702 77.1552 41.8158C77.3621 42.0614 77.569 42.0614 77.7759 41.8158L79.9483 39.2368L82.1207 41.8158C82.3276 42.0614 82.5345 42.0614 82.7414 41.8158C83.0517 41.693 83.0517 41.3246 82.8448 41.0789Z" fill="#213039"/>
<path opacity="0.5" d="M101.842 41.0789L99.6316 38.5L101.842 35.9211C102.053 35.6754 102.053 35.4298 101.842 35.1842C101.632 34.9386 101.421 34.9386 101.211 35.1842L99 37.7632L96.7895 35.1842C96.5789 34.9386 96.3684 34.9386 96.1579 35.1842C95.9474 35.4298 95.9474 35.6754 96.1579 35.9211L98.3684 38.5L96.1579 41.0789C95.9474 41.3246 95.9474 41.5702 96.1579 41.8158C96.3684 42.0614 96.5789 42.0614 96.7895 41.8158L99 39.2368L101.211 41.8158C101.421 42.0614 101.632 42.0614 101.842 41.8158C102.053 41.693 102.053 41.3246 101.842 41.0789Z" fill="#213039"/>
<path opacity="0.5" d="M120.842 41.0789L118.632 38.5L120.842 35.9211C121.053 35.6754 121.053 35.4298 120.842 35.1842C120.632 34.9386 120.421 34.9386 120.211 35.1842L118 37.7632L115.789 35.1842C115.579 34.9386 115.368 34.9386 115.158 35.1842C114.947 35.4298 114.947 35.6754 115.158 35.9211L117.368 38.5L115.158 41.0789C114.947 41.3246 114.947 41.5702 115.158 41.8158C115.368 42.0614 115.579 42.0614 115.789 41.8158L118 39.2368L120.211 41.8158C120.421 42.0614 120.632 42.0614 120.842 41.8158C121.053 41.693 121.053 41.3246 120.842 41.0789Z" fill="#213039"/>
<path opacity="0.5" d="M139.842 41.0789L137.632 38.5L139.842 35.9211C140.053 35.6754 140.053 35.4298 139.842 35.1842C139.632 34.9386 139.421 34.9386 139.211 35.1842L137 37.7632L134.789 35.1842C134.579 34.9386 134.368 34.9386 134.158 35.1842C133.947 35.4298 133.947 35.6754 134.158 35.9211L136.368 38.5L134.158 41.0789C133.947 41.3246 133.947 41.5702 134.158 41.8158C134.368 42.0614 134.579 42.0614 134.789 41.8158L137 39.2368L139.211 41.8158C139.421 42.0614 139.632 42.0614 139.842 41.8158C140.053 41.693 140.053 41.3246 139.842 41.0789Z" fill="#213039"/>
<path opacity="0.5" d="M159.816 41.0789L157.237 38.5L159.816 35.9211C160.061 35.6754 160.061 35.4298 159.816 35.1842C159.57 34.9386 159.325 34.9386 159.079 35.1842L156.5 37.7632L153.921 35.1842C153.675 34.9386 153.43 34.9386 153.184 35.1842C152.939 35.4298 152.939 35.6754 153.184 35.9211L155.763 38.5L153.184 41.0789C152.939 41.3246 152.939 41.5702 153.184 41.8158C153.43 42.0614 153.675 42.0614 153.921 41.8158L156.5 39.2368L159.079 41.8158C159.325 42.0614 159.57 42.0614 159.816 41.8158C160.061 41.693 160.061 41.3246 159.816 41.0789Z" fill="#213039"/>
<path opacity="0.5" d="M178.842 41.0789L176.632 38.5L178.842 35.9211C179.053 35.6754 179.053 35.4298 178.842 35.1842C178.632 34.9386 178.421 34.9386 178.211 35.1842L176 37.7632L173.789 35.1842C173.579 34.9386 173.368 34.9386 173.158 35.1842C172.947 35.4298 172.947 35.6754 173.158 35.9211L175.368 38.5L173.158 41.0789C172.947 41.3246 172.947 41.5702 173.158 41.8158C173.368 42.0614 173.579 42.0614 173.789 41.8158L176 39.2368L178.211 41.8158C178.421 42.0614 178.632 42.0614 178.842 41.8158C179.053 41.693 179.053 41.3246 178.842 41.0789Z" fill="#213039"/>
<path opacity="0.5" d="M197.842 41.0789L195.632 38.5L197.842 35.9211C198.053 35.6754 198.053 35.4298 197.842 35.1842C197.632 34.9386 197.421 34.9386 197.211 35.1842L195 37.7632L192.789 35.1842C192.579 34.9386 192.368 34.9386 192.158 35.1842C191.947 35.4298 191.947 35.6754 192.158 35.9211L194.368 38.5L192.158 41.0789C191.947 41.3246 191.947 41.5702 192.158 41.8158C192.368 42.0614 192.579 42.0614 192.789 41.8158L195 39.2368L197.211 41.8158C197.421 42.0614 197.632 42.0614 197.842 41.8158C198.053 41.5702 198.053 41.3246 197.842 41.0789Z" fill="#213039"/>
<path opacity="0.5" d="M5.84211 58.9474L3.63159 56L5.84211 53.0526C6.05263 52.7719 6.05263 52.4912 5.84211 52.2105C5.63158 51.9298 5.42106 51.9298 5.21054 52.2105L3 55.1579L0.789481 52.2105C0.578954 51.9298 0.368421 51.9298 0.157895 52.2105C-0.0526316 52.4912 -0.0526316 52.7719 0.157895 53.0526L2.36843 56L0.157895 58.9474C-0.0526316 59.2281 -0.0526316 59.5088 0.157895 59.7895C0.368421 60.0702 0.578954 60.0702 0.789481 59.7895L3 56.8421L5.21054 59.7895C5.42106 60.0702 5.63158 60.0702 5.84211 59.7895C6.05263 59.5088 6.05263 59.0878 5.84211 58.9474Z" fill="#213039"/>
<path opacity="0.5" d="M24.8421 58.9474L22.6316 56L24.8421 53.0526C25.0526 52.7719 25.0526 52.4912 24.8421 52.2105C24.6316 51.9298 24.421 51.9298 24.2105 52.2105L22 55.1579L19.7895 52.2105C19.579 51.9298 19.3684 51.9298 19.1579 52.2105C18.9474 52.4912 18.9474 52.7719 19.1579 53.0526L21.3684 56L19.1579 58.9474C18.9474 59.2281 18.9474 59.5088 19.1579 59.7895C19.3684 60.0702 19.579 60.0702 19.7895 59.7895L22 56.8421L24.2105 59.7895C24.421 60.0702 24.6316 60.0702 24.8421 59.7895C25.0526 59.5088 25.0526 59.0878 24.8421 58.9474Z" fill="#213039"/>
<path opacity="0.5" d="M44.8158 58.9474L42.2368 56L44.8158 53.0526C45.0614 52.7719 45.0614 52.4912 44.8158 52.2105C44.5702 51.9298 44.3246 51.9298 44.0789 52.2105L41.5 55.1579L38.9211 52.2105C38.6754 51.9298 38.4298 51.9298 38.1842 52.2105C37.9386 52.4912 37.9386 52.7719 38.1842 53.0526L40.7632 56L38.1842 58.9474C37.9386 59.2281 37.9386 59.5088 38.1842 59.7895C38.4298 60.0702 38.6754 60.0702 38.9211 59.7895L41.5 56.8421L44.0789 59.7895C44.3246 60.0702 44.5702 60.0702 44.8158 59.7895C45.0614 59.5088 45.0614 59.0878 44.8158 58.9474Z" fill="#213039"/>
<path opacity="0.5" d="M63.8421 58.9474L61.6316 56L63.8421 53.0526C64.0526 52.7719 64.0526 52.4912 63.8421 52.2105C63.6316 51.9298 63.421 51.9298 63.2105 52.2105L61 55.1579L58.7895 52.2105C58.5789 51.9298 58.3684 51.9298 58.1579 52.2105C57.9474 52.4912 57.9474 52.7719 58.1579 53.0526L60.3684 56L58.1579 58.9474C57.9474 59.2281 57.9474 59.5088 58.1579 59.7895C58.3684 60.0702 58.5789 60.0702 58.7895 59.7895L61 56.8421L63.2105 59.7895C63.421 60.0702 63.6316 60.0702 63.8421 59.7895C64.0526 59.5088 64.0526 59.0878 63.8421 58.9474Z" fill="#213039"/>
<path opacity="0.5" d="M82.8421 58.9474L80.6316 56L82.8421 53.0526C83.0526 52.7719 83.0526 52.4912 82.8421 52.2105C82.6316 51.9298 82.4211 51.9298 82.2105 52.2105L80 55.1579L77.7895 52.2105C77.579 51.9298 77.3684 51.9298 77.1579 52.2105C76.9474 52.4912 76.9474 52.7719 77.1579 53.0526L79.3684 56L77.1579 58.9474C76.9474 59.2281 76.9474 59.5088 77.1579 59.7895C77.3684 60.0702 77.579 60.0702 77.7895 59.7895L80 56.8421L82.2105 59.7895C82.4211 60.0702 82.6316 60.0702 82.8421 59.7895C83.0526 59.5088 83.0526 59.0878 82.8421 58.9474Z" fill="#213039"/>
<path opacity="0.5" d="M101.842 58.9474L99.6316 56L101.842 53.0526C102.053 52.7719 102.053 52.4912 101.842 52.2105C101.632 51.9298 101.421 51.9298 101.211 52.2105L99 55.1579L96.7895 52.2105C96.5789 51.9298 96.3684 51.9298 96.1579 52.2105C95.9474 52.4912 95.9474 52.7719 96.1579 53.0526L98.3684 56L96.1579 58.9474C95.9474 59.2281 95.9474 59.5088 96.1579 59.7895C96.3684 60.0702 96.5789 60.0702 96.7895 59.7895L99 56.8421L101.211 59.7895C101.421 60.0702 101.632 60.0702 101.842 59.7895C102.053 59.5088 102.053 59.0878 101.842 58.9474Z" fill="#213039"/>
<path opacity="0.5" d="M120.842 58.9474L118.632 56L120.842 53.0526C121.053 52.7719 121.053 52.4912 120.842 52.2105C120.632 51.9298 120.421 51.9298 120.211 52.2105L118 55.1579L115.789 52.2105C115.579 51.9298 115.368 51.9298 115.158 52.2105C114.947 52.4912 114.947 52.7719 115.158 53.0526L117.368 56L115.158 58.9474C114.947 59.2281 114.947 59.5088 115.158 59.7895C115.368 60.0702 115.579 60.0702 115.789 59.7895L118 56.8421L120.211 59.7895C120.421 60.0702 120.632 60.0702 120.842 59.7895C121.053 59.5088 121.053 59.0878 120.842 58.9474Z" fill="#213039"/>
<path opacity="0.5" d="M139.842 58.9474L137.632 56L139.842 53.0526C140.053 52.7719 140.053 52.4912 139.842 52.2105C139.632 51.9298 139.421 51.9298 139.211 52.2105L137 55.1579L134.789 52.2105C134.579 51.9298 134.368 51.9298 134.158 52.2105C133.947 52.4912 133.947 52.7719 134.158 53.0526L136.368 56L134.158 58.9474C133.947 59.2281 133.947 59.5088 134.158 59.7895C134.368 60.0702 134.579 60.0702 134.789 59.7895L137 56.8421L139.211 59.7895C139.421 60.0702 139.632 60.0702 139.842 59.7895C140.053 59.5088 140.053 59.0878 139.842 58.9474Z" fill="#213039"/>
<path opacity="0.5" d="M159.816 58.9474L157.237 56L159.816 53.0526C160.061 52.7719 160.061 52.4912 159.816 52.2105C159.57 51.9298 159.325 51.9298 159.079 52.2105L156.5 55.1579L153.921 52.2105C153.675 51.9298 153.43 51.9298 153.184 52.2105C152.939 52.4912 152.939 52.7719 153.184 53.0526L155.763 56L153.184 58.9474C152.939 59.2281 152.939 59.5088 153.184 59.7895C153.43 60.0702 153.675 60.0702 153.921 59.7895L156.5 56.8421L159.079 59.7895C159.325 60.0702 159.57 60.0702 159.816 59.7895C160.061 59.5088 160.061 59.0878 159.816 58.9474Z" fill="#213039"/>
<path opacity="0.5" d="M178.842 58.9474L176.632 56L178.842 53.0526C179.053 52.7719 179.053 52.4912 178.842 52.2105C178.632 51.9298 178.421 51.9298 178.211 52.2105L176 55.1579L173.789 52.2105C173.579 51.9298 173.368 51.9298 173.158 52.2105C172.947 52.4912 172.947 52.7719 173.158 53.0526L175.368 56L173.158 58.9474C172.947 59.2281 172.947 59.5088 173.158 59.7895C173.368 60.0702 173.579 60.0702 173.789 59.7895L176 56.8421L178.211 59.7895C178.421 60.0702 178.632 60.0702 178.842 59.7895C179.053 59.5088 179.053 59.0878 178.842 58.9474Z" fill="#213039"/>
<path opacity="0.5" d="M197.842 58.9474L195.632 56L197.842 53.0526C198.053 52.7719 198.053 52.4912 197.842 52.2105C197.632 51.9298 197.421 51.9298 197.211 52.2105L195 55.1579L192.789 52.2105C192.579 51.9298 192.368 51.9298 192.158 52.2105C191.947 52.4912 191.947 52.7719 192.158 53.0526L194.368 56L192.158 58.9474C191.947 59.2281 191.947 59.5088 192.158 59.7895C192.368 60.0702 192.579 60.0702 192.789 59.7895L195 56.8421L197.211 59.7895C197.421 60.0702 197.632 60.0702 197.842 59.7895C198.053 59.5088 198.053 59.0878 197.842 58.9474Z" fill="#213039"/>
<path opacity="0.5" d="M5.84211 76.0789L3.63159 73.5L5.84211 70.921C6.05263 70.6754 6.05263 70.4298 5.84211 70.1842C5.63158 69.9386 5.42106 69.9386 5.21054 70.1842L3 72.7631L0.789481 70.1842C0.578954 69.9386 0.368421 69.9386 0.157895 70.1842C-0.0526316 70.4298 -0.0526316 70.6754 0.157895 70.921L2.36843 73.5L0.157895 76.0789C-0.0526316 76.3246 -0.0526316 76.5702 0.157895 76.8158C0.368421 77.0614 0.578954 77.0614 0.789481 76.8158L3 74.2368L5.21054 76.8158C5.42106 77.0614 5.63158 77.0614 5.84211 76.8158C6.05263 76.5702 6.05263 76.3246 5.84211 76.0789Z" fill="#213039"/>
<path opacity="0.5" d="M24.8421 76.0789L22.6316 73.5L24.8421 70.921C25.0526 70.6754 25.0526 70.4298 24.8421 70.1842C24.6316 69.9386 24.421 69.9386 24.2105 70.1842L22 72.7631L19.7895 70.1842C19.579 69.9386 19.3684 69.9386 19.1579 70.1842C18.9474 70.4298 18.9474 70.6754 19.1579 70.921L21.3684 73.5L19.1579 76.0789C18.9474 76.3246 18.9474 76.5702 19.1579 76.8158C19.3684 77.0614 19.579 77.0614 19.7895 76.8158L22 74.2368L24.2105 76.8158C24.421 77.0614 24.6316 77.0614 24.8421 76.8158C25.0526 76.5702 25.0526 76.3246 24.8421 76.0789Z" fill="#213039"/>
<path opacity="0.5" d="M44.8158 76.0789L42.2368 73.5L44.8158 70.921C45.0614 70.6754 45.0614 70.4298 44.8158 70.1842C44.5702 69.9386 44.3246 69.9386 44.0789 70.1842L41.5 72.7631L38.9211 70.1842C38.6754 69.9386 38.4298 69.9386 38.1842 70.1842C37.9386 70.4298 37.9386 70.6754 38.1842 70.921L40.7632 73.5L38.1842 76.0789C37.9386 76.3246 37.9386 76.5702 38.1842 76.8158C38.4298 77.0614 38.6754 77.0614 38.9211 76.8158L41.5 74.2368L44.0789 76.8158C44.3246 77.0614 44.5702 77.0614 44.8158 76.8158C45.0614 76.5702 45.0614 76.3246 44.8158 76.0789Z" fill="#213039"/>
<path opacity="0.5" d="M63.8421 76.0789L61.6316 73.5L63.8421 70.921C64.0526 70.6754 64.0526 70.4298 63.8421 70.1842C63.6316 69.9386 63.421 69.9386 63.2105 70.1842L61 72.7631L58.7895 70.1842C58.5789 69.9386 58.3684 69.9386 58.1579 70.1842C57.9474 70.4298 57.9474 70.6754 58.1579 70.921L60.3684 73.5L58.1579 76.0789C57.9474 76.3246 57.9474 76.5702 58.1579 76.8158C58.3684 77.0614 58.5789 77.0614 58.7895 76.8158L61 74.2368L63.2105 76.8158C63.421 77.0614 63.6316 77.0614 63.8421 76.8158C64.0526 76.5702 64.0526 76.3246 63.8421 76.0789Z" fill="#213039"/>
<path opacity="0.5" d="M82.8421 76.0789L80.6316 73.5L82.8421 70.921C83.0526 70.6754 83.0526 70.4298 82.8421 70.1842C82.6316 69.9386 82.4211 69.9386 82.2105 70.1842L80 72.7631L77.7895 70.1842C77.579 69.9386 77.3684 69.9386 77.1579 70.1842C76.9474 70.4298 76.9474 70.6754 77.1579 70.921L79.3684 73.5L77.1579 76.0789C76.9474 76.3246 76.9474 76.5702 77.1579 76.8158C77.3684 77.0614 77.579 77.0614 77.7895 76.8158L80 74.2368L82.2105 76.8158C82.4211 77.0614 82.6316 77.0614 82.8421 76.8158C83.0526 76.5702 83.0526 76.3246 82.8421 76.0789Z" fill="#213039"/>
<path opacity="0.5" d="M101.842 76.0789L99.6316 73.5L101.842 70.921C102.053 70.6754 102.053 70.4298 101.842 70.1842C101.632 69.9386 101.421 69.9386 101.211 70.1842L99 72.7631L96.7895 70.1842C96.5789 69.9386 96.3684 69.9386 96.1579 70.1842C95.9474 70.4298 95.9474 70.6754 96.1579 70.921L98.3684 73.5L96.1579 76.0789C95.9474 76.3246 95.9474 76.5702 96.1579 76.8158C96.3684 77.0614 96.5789 77.0614 96.7895 76.8158L99 74.2368L101.211 76.8158C101.421 77.0614 101.632 77.0614 101.842 76.8158C102.053 76.5702 102.053 76.3246 101.842 76.0789Z" fill="#213039"/>
<path opacity="0.5" d="M120.842 76.0789L118.632 73.5L120.842 70.921C121.053 70.6754 121.053 70.4298 120.842 70.1842C120.632 69.9386 120.421 69.9386 120.211 70.1842L118 72.7631L115.789 70.1842C115.579 69.9386 115.368 69.9386 115.158 70.1842C114.947 70.4298 114.947 70.6754 115.158 70.921L117.368 73.5L115.158 76.0789C114.947 76.3246 114.947 76.5702 115.158 76.8158C115.368 77.0614 115.579 77.0614 115.789 76.8158L118 74.2368L120.211 76.8158C120.421 77.0614 120.632 77.0614 120.842 76.8158C121.053 76.5702 121.053 76.3246 120.842 76.0789Z" fill="#213039"/>
<path opacity="0.5" d="M139.842 76.0789L137.632 73.5L139.842 70.921C140.053 70.6754 140.053 70.4298 139.842 70.1842C139.632 69.9386 139.421 69.9386 139.211 70.1842L137 72.7631L134.789 70.1842C134.579 69.9386 134.368 69.9386 134.158 70.1842C133.947 70.4298 133.947 70.6754 134.158 70.921L136.368 73.5L134.158 76.0789C133.947 76.3246 133.947 76.5702 134.158 76.8158C134.368 77.0614 134.579 77.0614 134.789 76.8158L137 74.2368L139.211 76.8158C139.421 77.0614 139.632 77.0614 139.842 76.8158C140.053 76.5702 140.053 76.3246 139.842 76.0789Z" fill="#213039"/>
<path opacity="0.5" d="M159.816 76.0789L157.237 73.5L159.816 70.921C160.061 70.6754 160.061 70.4298 159.816 70.1842C159.57 69.9386 159.325 69.9386 159.079 70.1842L156.5 72.7631L153.921 70.1842C153.675 69.9386 153.43 69.9386 153.184 70.1842C152.939 70.4298 152.939 70.6754 153.184 70.921L155.763 73.5L153.184 76.0789C152.939 76.3246 152.939 76.5702 153.184 76.8158C153.43 77.0614 153.675 77.0614 153.921 76.8158L156.5 74.2368L159.079 76.8158C159.325 77.0614 159.57 77.0614 159.816 76.8158C160.061 76.5702 160.061 76.3246 159.816 76.0789Z" fill="#213039"/>
<path opacity="0.5" d="M178.842 76.0789L176.632 73.5L178.842 70.921C179.053 70.6754 179.053 70.4298 178.842 70.1842C178.632 69.9386 178.421 69.9386 178.211 70.1842L176 72.7631L173.789 70.1842C173.579 69.9386 173.368 69.9386 173.158 70.1842C172.947 70.4298 172.947 70.6754 173.158 70.921L175.368 73.5L173.158 76.0789C172.947 76.3246 172.947 76.5702 173.158 76.8158C173.368 77.0614 173.579 77.0614 173.789 76.8158L176 74.2368L178.211 76.8158C178.421 77.0614 178.632 77.0614 178.842 76.8158C179.053 76.5702 179.053 76.3246 178.842 76.0789Z" fill="#213039"/>
<path opacity="0.5" d="M197.842 76.0789L195.632 73.5L197.842 70.921C198.053 70.6754 198.053 70.4298 197.842 70.1842C197.632 69.9386 197.421 69.9386 197.211 70.1842L195 72.7631L192.789 70.1842C192.579 69.9386 192.368 69.9386 192.158 70.1842C191.947 70.4298 191.947 70.6754 192.158 70.921L194.368 73.5L192.158 76.0789C191.947 76.3246 191.947 76.5702 192.158 76.8158C192.368 77.0614 192.579 77.0614 192.789 76.8158L195 74.2368L197.211 76.8158C197.421 77.0614 197.632 77.0614 197.842 76.8158C198.053 76.5702 198.053 76.3246 197.842 76.0789Z" fill="#213039"/>
</g>
</svg>
