<svg width="255" height="71" viewBox="0 0 255 71" fill="none" xmlns="http://www.w3.org/2000/svg">
<path d="M10.7619 29.0435C11.3129 27.7447 10.7067 26.2452 9.40788 25.6942C8.1091 25.1432 6.60957 25.7494 6.05857 27.0481L10.7619 29.0435ZM157.524 24.4398L157.117 26.9618L157.524 24.4398ZM201.278 38.6603L202.909 40.6261L201.278 38.6603ZM254.27 13.4981C254.872 12.2222 254.326 10.6998 253.05 10.0975L232.259 0.283946C230.984 -0.318265 229.461 0.227819 228.859 1.50365C228.257 2.77949 228.803 4.30195 230.079 4.90417L248.56 13.6274L239.836 32.1082C239.234 33.3841 239.78 34.9065 241.056 35.5087C242.332 36.111 243.854 35.5649 244.457 34.289L254.27 13.4981ZM6.05857 27.0481C1.72926 37.253 -0.0763794 45.1576 0.58569 51.0674C0.923379 54.0818 1.9117 56.6515 3.59765 58.7043C5.28223 60.7554 7.52645 62.1238 10.1034 62.9629C15.1467 64.605 21.7451 64.3103 29.0627 62.993C36.4573 61.6619 44.9478 59.2144 53.9658 56.2235C62.9928 53.2296 72.6336 49.6621 82.3266 46.0696C92.0366 42.4707 101.802 38.8458 111.145 35.7074C120.493 32.5675 129.353 29.9372 137.244 28.3164C145.174 26.6876 151.92 26.1235 157.117 26.9618L157.93 21.9179C151.824 20.9331 144.362 21.6386 136.216 23.3118C128.03 24.9931 118.946 27.6974 109.518 30.8642C100.086 34.0326 90.2432 37.6867 80.551 41.279C70.8418 44.8775 61.2856 48.4131 52.3575 51.3742C43.4203 54.3383 35.1976 56.6975 28.1575 57.9648C21.0404 59.246 15.4827 59.3413 11.6852 58.1049C9.84176 57.5047 8.49439 56.6167 7.54578 55.4617C6.59854 54.3083 5.91208 52.7223 5.66297 50.4987C5.15145 45.9326 6.52417 39.0324 10.7619 29.0435L6.05857 27.0481ZM157.117 26.9618C185.409 31.525 205.753 36.7622 216.237 42.7469C221.562 45.7864 223.527 48.5516 223.683 50.8166C223.839 53.0691 222.298 56.2316 216.877 60.32L219.953 64.3992C225.652 60.1014 229.126 55.4702 228.78 50.4646C228.435 45.4716 224.383 41.5142 218.77 38.3098C207.377 31.8066 186.155 26.4702 157.93 21.9179L157.117 26.9618ZM216.877 60.32C211.634 64.2738 207.32 65.444 204.151 65.1861C201.052 64.9338 198.717 63.296 197.285 60.8441C194.366 55.8453 195.147 47.0674 202.909 40.6261L199.647 36.6944C190.272 44.4735 188.5 55.9316 192.874 63.4204C195.088 67.2124 198.861 69.8814 203.737 70.2783C208.545 70.6697 214.075 68.8317 219.953 64.3992L216.877 60.32ZM202.909 40.6261C209.524 35.1376 219.177 29.6839 228.682 25.07C238.154 20.4725 247.313 16.7885 252.823 14.8122L251.098 10.0031C245.426 12.0375 236.098 15.7916 226.452 20.4737C216.839 25.1394 206.742 30.8066 199.647 36.6944L202.909 40.6261Z" fill="url(#paint0_linear_452_1014)"/>
<defs>
<linearGradient id="paint0_linear_452_1014" x1="109.995" y1="-25.4135" x2="98.7852" y2="81.2224" gradientUnits="userSpaceOnUse">
<stop stop-color="#990000"/>
<stop offset="0.281" stop-color="#990000"/>
<stop offset="0.482" stop-color="#990000"/>
<stop offset="1" stop-color="#990000"/>
</linearGradient>
</defs>
</svg>
