<svg width="66" height="4" viewBox="0 0 66 4" fill="none" xmlns="http://www.w3.org/2000/svg">
<g clip-path="url(#clip0_515_5)">
<path d="M33 0H2C0.89543 0 0 0.89543 0 2C0 3.10457 0.89543 4 2 4H33C34.1046 4 35 3.10457 35 2C35 0.89543 34.1046 0 33 0Z" fill="#C68528"/>
<path d="M51 0H40C38.8954 0 38 0.89543 38 2C38 3.10457 38.8954 4 40 4H51C52.1046 4 53 3.10457 53 2C53 0.89543 52.1046 0 51 0Z" fill="#C68528"/>
<path d="M64 0H58C56.8954 0 56 0.89543 56 2C56 3.10457 56.8954 4 58 4H64C65.1046 4 66 3.10457 66 2C66 0.89543 65.1046 0 64 0Z" fill="#C68528"/>
</g>
<defs>
<clipPath id="clip0_515_5">
<rect width="66" height="4" fill="white"/>
</clipPath>
</defs>
</svg>
