<svg width="100" height="75" viewBox="0 0 100 75" fill="none" xmlns="http://www.w3.org/2000/svg">
<path d="M62.4804 25H61.7877C61.5007 25 61.2681 25.1805 61.2681 25.4032C61.2681 25.6259 61.5007 25.8064 61.7877 25.8064H61.9609V49.1934H61.7877C61.5007 49.1934 61.2681 49.3739 61.2681 49.5966C61.2681 49.8193 61.5007 49.9998 61.7877 49.9998H62.4804C62.7674 49.9998 63 49.8193 63 49.5966V25.4032C63 25.1805 62.7674 25 62.4804 25Z" fill="#274D70"/>
<path d="M56.2456 32.5268H41.9834C41.6964 32.5268 41.4638 32.7074 41.4638 32.93C41.4638 33.1527 41.6964 33.3333 41.9834 33.3333H56.2455C56.5325 33.3333 56.7651 33.1527 56.7651 32.93C56.7651 32.7074 56.5325 32.5268 56.2456 32.5268Z" fill="#274D70"/>
<path d="M56.2456 38.9784H41.9834C41.6964 38.9784 41.4638 39.1589 41.4638 39.3816C41.4638 39.6043 41.6964 39.7848 41.9834 39.7848H56.2455C56.5325 39.7848 56.7651 39.6043 56.7651 39.3816C56.7651 39.1589 56.5325 38.9784 56.2456 38.9784Z" fill="#274D70"/>
<path d="M56.2456 41.1289H50.5C50.213 41.1289 49.9804 41.3095 49.9804 41.5322C49.9804 41.7548 50.213 41.9354 50.5 41.9354H56.2456C56.5326 41.9354 56.7651 41.7548 56.7651 41.5322C56.7651 41.3095 56.5325 41.1289 56.2456 41.1289Z" fill="#274D70"/>
<path d="M59.7094 25H43.3689C43.3515 25 43.3342 25.0007 43.317 25.002C43.3043 25.0031 43.2917 25.0047 43.2793 25.0065C43.2751 25.007 43.2708 25.0073 43.2667 25.008C43.2518 25.0103 43.2372 25.0132 43.2229 25.0165C43.2211 25.0169 43.2193 25.0172 43.2175 25.0176C43.2029 25.021 43.1885 25.0252 43.1744 25.0296C43.1729 25.0301 43.1713 25.0304 43.1698 25.0309C43.1563 25.0352 43.1433 25.0401 43.1304 25.0453C43.1282 25.0462 43.126 25.0469 43.1239 25.0477C43.1119 25.0527 43.1004 25.0583 43.089 25.0639C43.0861 25.0654 43.083 25.0666 43.0802 25.0681C43.0695 25.0736 43.0594 25.0797 43.0493 25.0858C43.0459 25.0878 43.0425 25.0896 43.0392 25.0917C43.0272 25.0993 43.0158 25.1074 43.0047 25.1159C43.0037 25.1167 43.0026 25.1174 43.0015 25.1182L38.1522 28.8816C38.151 28.8826 38.1499 28.8837 38.1487 28.8847C38.1381 28.893 38.1278 28.9017 38.1182 28.9108C38.1151 28.9137 38.1125 28.9168 38.1095 28.9198C38.102 28.9272 38.0946 28.9347 38.0878 28.9425C38.0856 28.9451 38.0837 28.9479 38.0815 28.9506C38.0745 28.9591 38.0677 28.9676 38.0616 28.9764C38.0602 28.9784 38.0592 28.9805 38.0578 28.9824C38.0514 28.9922 38.0452 29.002 38.0398 29.0121C38.039 29.0135 38.0384 29.015 38.0377 29.0165C38.0321 29.0272 38.0269 29.0381 38.0226 29.0493C38.022 29.0507 38.0217 29.0521 38.0211 29.0536C38.0169 29.0647 38.0131 29.0759 38.0102 29.0874C38.0094 29.0906 38.009 29.0938 38.0083 29.097C38.0061 29.1068 38.0039 29.1165 38.0026 29.1265C38.0009 29.1399 38 29.1533 38 29.1668V49.5968C38 49.8195 38.2326 50 38.5196 50H59.7093C59.9963 50 60.2289 49.8195 60.2289 49.5968V25.4032C60.2289 25.1805 59.9963 25 59.7094 25ZM42.8493 26.3767V28.7634H39.774L42.8493 26.3767ZM59.1898 49.1934H39.0391V29.5699H43.3689C43.6559 29.5699 43.8885 29.3893 43.8885 29.1666V25.8064H59.1897V49.1934H59.1898Z" fill="#274D70"/>
<path d="M45.4472 29.5699H56.2455C56.5325 29.5699 56.7651 29.3893 56.7651 29.1667C56.7651 28.944 56.5325 28.7634 56.2455 28.7634H45.4472C45.1602 28.7634 44.9276 28.944 44.9276 29.1667C44.9276 29.3893 45.1603 29.5699 45.4472 29.5699Z" fill="#274D70"/>
<path d="M56.2456 34.6774H50.5C50.213 34.6774 49.9804 34.8579 49.9804 35.0806C49.9804 35.3033 50.213 35.4838 50.5 35.4838H56.2456C56.5326 35.4838 56.7651 35.3033 56.7651 35.0806C56.7651 34.8579 56.5325 34.6774 56.2456 34.6774Z" fill="#274D70"/>
<path d="M56.2456 36.8279H50.5C50.213 36.8279 49.9804 37.0084 49.9804 37.2311C49.9804 37.4538 50.213 37.6343 50.5 37.6343H56.2456C56.5326 37.6343 56.7651 37.4538 56.7651 37.2311C56.7651 37.0084 56.5325 36.8279 56.2456 36.8279Z" fill="#274D70"/>
<path d="M47.7289 41.9354C48.016 41.9354 48.2485 41.7548 48.2485 41.5322C48.2485 41.3095 48.016 41.1289 47.7289 41.1289H41.9834C41.6964 41.1289 41.4638 41.3095 41.4638 41.5322V45.8332C41.4638 46.0559 41.6964 46.2364 41.9834 46.2364H47.7289C48.016 46.2364 48.2485 46.0559 48.2485 45.8332V43.1451C48.2485 42.9224 48.016 42.7418 47.7289 42.7418C47.4419 42.7418 47.2094 42.9224 47.2094 43.1451V45.43H42.503V41.9354H47.7289Z" fill="#274D70"/>
<path d="M41.9834 37.6343H47.7289C48.016 37.6343 48.2485 37.4538 48.2485 37.2311C48.2485 37.0084 48.016 36.8279 47.7289 36.8279H41.9834C41.6964 36.8279 41.4638 37.0084 41.4638 37.2311C41.4638 37.4538 41.6964 37.6343 41.9834 37.6343Z" fill="#274D70"/>
<path d="M52.7818 45.43H50.5C50.213 45.43 49.9804 45.6105 49.9804 45.8332C49.9804 46.0559 50.213 46.2364 50.5 46.2364H52.7818C53.0688 46.2364 53.3013 46.0559 53.3013 45.8332C53.3013 45.6105 53.0687 45.43 52.7818 45.43Z" fill="#274D70"/>
<path d="M56.2456 43.2794H50.5C50.213 43.2794 49.9804 43.46 49.9804 43.6827C49.9804 43.9054 50.213 44.0859 50.5 44.0859H56.2456C56.5326 44.0859 56.7651 43.9054 56.7651 43.6827C56.7651 43.46 56.5325 43.2794 56.2456 43.2794Z" fill="#274D70"/>
<path d="M41.9834 35.4838H47.7289C48.016 35.4838 48.2485 35.3033 48.2485 35.0806C48.2485 34.8579 48.016 34.6774 47.7289 34.6774H41.9834C41.6964 34.6774 41.4638 34.8579 41.4638 35.0806C41.4638 35.3033 41.6964 35.4838 41.9834 35.4838Z" fill="#274D70"/>
<rect width="100" height="75" fill="#274D70" fill-opacity="0.07"/>
</svg>
