<svg width="203" height="203" viewBox="0 0 203 203" fill="none" xmlns="http://www.w3.org/2000/svg">
<g clip-path="url(#clip0_1_2)">
<path d="M276 101.383C276 45.3949 157.363 -68 101.375 -68C45.3871 -68 -101 45.3949 -101 101.383C-101 157.371 51.0121 279 107 279C162.988 279 276 157.371 276 101.383Z" fill="url(#paint0_linear_1_2)"/>
<path d="M152.485 149.941C151.33 151.046 150.375 152.042 149.327 152.945C147.056 154.902 144.558 156.595 141.802 157.926C139.601 158.989 137.383 160.036 135.091 160.914C132.857 161.77 130.533 162.43 128.229 163.116C126.693 163.574 125.131 163.979 123.561 164.314C122.069 164.631 120.547 164.824 119.039 165.076C118.727 165.127 118.411 165.175 118.11 165.261C117.118 165.538 115.947 165.237 115.524 164.575C115.113 163.936 115.363 162.921 116.098 162.262C118.299 160.284 119.614 157.873 120.332 155.137C120.655 153.911 120.783 152.732 120.325 151.521C119.768 150.048 118.589 149.151 117.072 148.663C115.522 148.164 113.923 147.794 112.333 147.413C111.582 147.233 110.802 147.082 110.027 147.056C105.959 146.921 101.89 146.729 97.822 146.762C95.2218 146.781 92.6215 147.119 90.0283 147.377C87.211 147.656 84.4053 148.02 81.5927 148.323C79.3799 148.562 77.1649 148.809 74.9451 148.968C71.7076 149.201 68.4632 149.515 65.2234 149.497C62.9616 149.485 60.7068 148.953 58.4427 148.695C56.1506 148.433 54.1409 147.493 52.1335 146.544C51.6527 146.316 51.445 146.394 51.3142 146.841C51.1299 147.48 50.8871 148.11 50.7611 148.758C50.4693 150.25 50.2009 151.749 49.9791 153.255C49.8087 154.416 49.7364 155.591 49.594 156.759C49.496 157.554 48.5343 158.357 47.729 158.268C46.8911 158.176 45.9947 157.772 46.0134 156.612C46.0484 154.576 46.1745 152.56 46.709 150.573C47.2855 148.433 47.834 146.284 48.2892 144.12C48.3662 143.759 47.9484 143.279 47.6846 142.897C47.1128 142.064 46.4149 141.301 45.9084 140.438C44.8417 138.629 44.7273 136.732 45.4976 134.788C46.5666 132.089 48.7 130.259 51.2862 128.824C54.1082 127.258 57.1823 126.286 60.3964 125.651C62.3174 125.273 64.215 124.785 66.1454 124.469C67.5668 124.234 69.0234 124.174 70.4682 124.084C71.0937 124.043 71.3155 124.013 71.0821 123.292C70.3562 121.053 69.6933 118.793 69.1587 116.508C68.6172 114.198 68.2368 111.854 67.8283 109.518C67.6486 108.492 67.5318 107.454 67.4642 106.417C67.3031 103.958 67.1304 101.5 67.065 99.0396C66.9226 93.6776 66.7826 88.3157 66.7733 82.9537C66.7709 81.0997 67.1327 79.2393 67.3825 77.3896C67.5785 75.9378 67.7699 74.4774 68.1224 73.0557C68.6686 70.8554 69.2731 68.6595 69.9967 66.5043C70.8767 63.8761 72.1628 61.3919 73.729 59.054C74.6837 57.628 75.7737 56.2751 76.8778 54.9416C79.4313 51.8574 82.7038 49.5302 86.2937 47.5665C89.1507 46.0029 92.2504 44.9404 95.4552 44.2134C98.0717 43.6219 100.768 43.1767 103.473 43.5294C105.438 43.7854 107.362 44.3059 109.308 44.6866C112.301 45.2716 114.985 46.5449 117.587 47.9429C121.147 49.855 124.184 52.3413 126.758 55.3266C128.922 57.8323 130.635 60.5681 131.991 63.4954C133.184 66.0677 134.209 68.696 134.704 71.477C135.119 73.8128 135.577 76.1421 136.011 78.4736C136.041 78.6306 136.039 78.794 136.044 78.9554C136.172 83.3236 136.221 87.6962 136.461 92.0602C136.564 93.9077 136.961 95.7574 137.411 97.5663C137.881 99.4547 138.415 101.358 139.216 103.141C140.163 105.251 141.321 107.297 142.581 109.267C144.659 112.521 147.397 115.328 150.055 118.182C152.474 120.776 154.817 123.453 156.14 126.695C156.754 128.198 157.154 129.807 157.396 131.403C157.669 133.194 157.779 135.025 157.744 136.836C157.695 139.492 157.039 142.056 155.825 144.482C155.31 145.512 155.172 146.454 155.531 147.65C156.159 149.74 156.369 151.936 156.738 154.089C156.864 154.825 157.02 155.567 157.025 156.307C157.027 157.126 156.645 157.787 155.732 158.12C154.843 158.445 153.739 158.03 153.512 157.163C153.337 156.494 153.274 155.797 153.181 155.111C152.95 153.436 152.726 151.758 152.483 149.951L152.485 149.941ZM121.875 161.129C122.176 161.097 122.41 161.099 122.625 161.043C123.626 160.783 124.609 160.458 125.619 160.243C128.896 159.542 132.029 158.46 135.119 157.253C139.552 155.524 143.601 153.251 147.103 150.181C151.969 145.916 154.369 140.703 154.187 134.506C154.163 133.711 154.051 132.904 153.858 132.13C153.473 130.581 153.174 128.987 152.53 127.527C151.18 124.471 148.732 122.066 146.535 119.522C144.554 117.229 142.469 115.005 140.595 112.637C138.859 110.441 137.302 108.116 136.289 105.529C136.149 105.174 135.95 104.838 135.724 104.384C135.567 104.606 135.458 104.698 135.43 104.81C135.185 105.765 134.939 106.722 134.72 107.684C134.125 110.286 133.028 112.725 131.646 115.031C129.611 118.423 126.903 121.305 123.523 123.664C120.958 125.454 118.166 126.841 115.19 127.903C111.239 129.319 107.096 130.069 102.896 130.521C100.91 130.734 98.898 130.816 96.8977 130.835C95.3058 130.85 93.7116 130.687 92.1197 130.592C90.4998 130.493 88.8729 130.439 87.2623 130.261C84.8255 129.99 82.3863 129.701 79.9775 129.284C77.4589 128.848 74.9731 128.241 72.4686 127.733C71.682 127.574 70.8627 127.351 70.0807 127.409C68.5005 127.525 66.911 127.723 65.3658 128.047C62.6652 128.615 59.9552 129.194 57.3177 129.968C54.1852 130.887 51.3329 132.289 49.51 134.982C48.9358 135.829 48.3032 136.808 48.7187 137.75C49.2649 138.991 50.0468 140.195 50.9665 141.234C53.9145 144.566 58.1229 145.615 62.4668 145.903C66.101 146.144 69.7843 145.82 73.4442 145.693C75.2112 145.632 76.9734 145.467 78.7357 145.321C79.9168 145.222 81.0955 145.088 82.272 144.946C83.7611 144.768 85.2457 144.544 86.7372 144.381C88.1166 144.23 89.5054 144.144 90.8896 144.015C92.9343 143.824 94.972 143.527 97.0214 143.441C99.6123 143.333 102.212 143.342 104.806 143.404C106.92 143.454 109.068 143.479 111.136 143.834C113.706 144.275 116.238 144.966 118.736 145.697C120.638 146.252 122.141 147.428 123.14 149.031C124.73 151.577 124.466 154.281 123.619 156.952C123.175 158.346 122.492 159.675 121.873 161.135L121.875 161.129ZM132.561 86.0466C132.542 82.73 132.601 79.4113 131.861 76.1335C131.45 74.3118 131.259 72.4427 130.729 70.6554C130.098 68.5326 129.307 66.4398 128.411 64.3987C127.379 62.0457 125.965 59.8756 124.265 57.856C122.727 56.0278 120.988 54.3867 119.051 52.9478C116.677 51.1842 114.065 49.7216 111.162 48.8118C109.04 48.1451 106.881 47.5063 104.682 47.1385C103.008 46.8589 101.291 46.5363 99.5166 47.0159C97.6703 47.5149 95.6699 47.5816 93.8703 48.173C91.6529 48.9022 89.5171 49.8872 87.4444 50.9282C83.39 52.9672 80.2763 56.002 77.739 59.4841C75.5053 62.549 73.9064 65.9344 72.7696 69.4897C71.7286 72.7438 71.1358 76.0797 70.6946 79.4328C70.4262 81.474 70.3375 83.5452 70.3328 85.6035C70.3258 88.2253 70.4775 90.8472 70.5779 93.469C70.7016 96.7081 70.823 99.9472 70.9841 103.184C71.0704 104.946 71.2198 106.705 71.3762 108.462C71.4602 109.391 71.5769 110.321 71.7566 111.239C72.1698 113.332 72.5222 115.439 73.1011 117.496C73.6706 119.522 74.4409 121.505 75.2112 123.479C75.7504 124.862 76.9594 125.49 78.5163 125.679C80.0918 125.871 81.6511 126.174 83.2243 126.381C85.6564 126.701 88.0863 127.136 90.5301 127.237C94.05 127.385 97.5839 127.277 101.113 127.277C101.347 127.277 101.582 127.271 101.811 127.237C103.776 126.944 105.751 126.69 107.702 126.331C109.313 126.034 110.945 125.727 112.483 125.213C115.09 124.342 117.634 123.337 119.952 121.866C122.604 120.182 124.998 118.255 126.817 115.818C128.621 113.398 130.098 110.792 130.845 107.903C131.434 105.63 132.087 103.358 132.449 101.053C132.766 99.0224 132.764 96.9447 132.815 94.8864C132.839 93.9056 132.598 92.9205 132.577 91.9376C132.538 89.9782 132.566 88.0167 132.566 86.0552L132.561 86.0466Z" fill="white"/>
<path d="M73.7088 80.2305C73.7088 79.3444 73.6901 78.4582 73.7135 77.5721C73.7858 74.7416 74.5398 72.0295 75.5948 69.4012C77.3197 65.1125 80.1253 61.4819 83.8973 58.516C86.6773 56.3308 89.8004 54.6553 93.3482 53.7777C95.1245 53.3368 96.9545 53.0701 98.7751 52.8034C99.9142 52.6357 101.088 52.4894 102.23 52.5518C104.62 52.683 106.968 53.0551 109.297 53.6595C112.369 54.4553 115.119 55.778 117.67 57.4642C120.254 59.172 122.471 61.2647 124.136 63.7639C125.401 65.6609 126.54 67.6504 127.499 69.6916C128.132 71.0401 128.349 72.5543 128.75 73.9953C129.532 76.8043 129.565 79.6734 129.364 82.5297C129.208 84.7558 128.83 86.9754 128.412 89.1757C128.031 91.1889 127.571 93.202 126.96 95.1657C125.683 99.2587 123.869 103.154 121.225 106.668C119.862 108.479 118.438 110.282 116.811 111.89C114.78 113.899 112.474 115.652 109.862 117.033C107.773 118.136 105.581 118.779 103.163 119.037C99.1626 119.465 95.6077 118.523 92.3049 116.558C89.4199 114.839 86.9154 112.74 84.6863 110.31C81.9646 107.341 79.8056 104.081 78.16 100.538C77.21 98.493 76.5121 96.34 75.8072 94.2064C75.2797 92.6084 74.9015 90.9673 74.5001 89.3349C74.3133 88.5821 74.1756 87.8142 74.1056 87.0443C73.9002 84.7795 73.7415 82.5104 73.5664 80.2434C73.6154 80.2413 73.6621 80.2369 73.7111 80.2348L73.7088 80.2305ZM101.95 71.2616C101.945 71.2036 101.943 71.1455 101.938 71.0874C99.9725 71.238 98.0072 71.3778 96.0442 71.5413C94.6881 71.6531 93.3342 71.7821 91.9828 71.9327C91.3829 71.9994 90.762 72.066 90.2065 72.2639C89.5296 72.507 88.7827 72.778 88.2948 73.2404C87.5362 73.9588 86.8967 74.8083 86.3365 75.6729C84.8146 78.0216 83.2508 80.3574 81.9133 82.7964C80.9283 84.5923 80.172 86.513 79.5161 88.438C79.11 89.6317 78.4728 90.7737 78.9396 92.2148C79.6912 94.5355 80.4685 96.8304 81.4838 99.0694C83.1784 102.803 85.5009 106.15 88.4699 109.118C90.3419 110.991 92.4216 112.626 94.7721 114.002C97.6104 115.665 100.719 116.067 103.873 115.573C106.975 115.086 109.599 113.469 111.935 111.544C113.879 109.942 115.616 108.172 117.159 106.214C118.937 103.954 120.427 101.547 121.591 98.9963C122.924 96.0776 123.935 93.0579 124.574 89.922C125.107 87.3174 125.557 84.7214 125.552 82.0694C125.552 81.7834 125.524 81.4479 125.366 81.222C124.663 80.2197 124 79.1723 123.153 78.2776C121.045 76.0493 118.419 74.4836 115.467 73.3157C112.533 72.1521 109.437 71.6638 106.321 71.2896C104.888 71.1175 103.411 71.2595 101.954 71.2595L101.95 71.2616ZM77.175 83.2502C77.308 83.2911 77.4434 83.332 77.5765 83.3728C83.6709 70.4917 93.2852 61.0797 108.259 56.9437C107.619 56.7136 107.078 56.4921 106.522 56.4512C104.356 56.2942 102.188 56.1501 100.017 56.0856C97.2976 56.0038 94.7511 56.7717 92.2862 57.7094C88.1665 59.2752 84.8987 61.8583 82.2494 65.134C80.3961 67.4246 79.0703 69.954 78.3281 72.722C77.9779 74.034 77.6932 75.3761 77.5648 76.7204C77.3547 78.8905 77.2987 81.0736 77.1773 83.2502H77.175ZM93.4836 68.2527C93.9902 68.2527 94.3846 68.2806 94.7744 68.2484C96.9638 68.0677 99.1486 67.8031 101.343 67.7064C102.605 67.6504 103.882 67.9193 105.154 67.9214C108.081 67.9236 110.885 68.5129 113.69 69.2055C117.1 70.0486 120.182 71.4552 122.957 73.4533C123.65 73.9523 124.336 74.4556 125.118 75.0277C125.118 74.6126 125.184 74.3093 125.109 74.0405C124.341 71.3219 123.349 68.6936 121.659 66.3169C119.827 63.7403 117.572 61.5443 114.867 59.7462C114.505 59.5053 113.94 59.3784 113.497 59.4258C112.673 59.5096 111.853 59.7183 111.06 59.9484C108.635 60.6496 106.163 61.2496 103.822 62.1358C100.036 63.5704 96.5997 65.5771 93.486 68.257L93.4836 68.2527Z" fill="white"/>
</g>
<defs>
<linearGradient id="paint0_linear_1_2" x1="33.752" y1="-15.3412" x2="117.643" y2="254.954" gradientUnits="userSpaceOnUse">
<stop stop-color="#284A6F"/>
<stop offset="1" stop-color="#05386F"/>
</linearGradient>
<clipPath id="clip0_1_2">
<rect width="203" height="203" fill="white"/>
</clipPath>
</defs>
</svg>
