<svg width="116" height="72" viewBox="0 0 116 72" fill="none" xmlns="http://www.w3.org/2000/svg">
<path d="M65.3024 11.809C65.3024 7.50958 68.7721 4.03893 73.0705 4.03893C77.3688 4.03893 80.8386 7.50958 80.8386 11.809C80.8386 16.1085 77.3688 19.5792 73.0705 19.5792C68.7721 19.5792 65.3024 16.1085 65.3024 11.809ZM101.657 61.3306C103.314 65.3192 101.398 69.8259 97.4106 71.4317C93.4229 73.0375 88.9174 71.1209 87.2602 67.1841L73.2258 32.633C71.6204 28.6443 73.5366 24.0858 77.5242 22.48C81.5118 20.8742 86.0173 22.7908 87.6227 26.7795L101.657 61.3306ZM69.7561 39.4189C71.4133 43.3557 69.4972 47.9142 65.5095 49.52C61.5219 51.1258 57.0164 49.2092 55.3592 45.2723L41.3248 10.6694C39.7194 6.73257 41.6355 2.1741 45.6232 0.568281C49.559 -1.03754 54.1163 0.879085 55.7217 4.81594L69.7561 39.4189ZM23.9242 39.2635C25.5297 43.2521 23.6135 47.8106 19.6777 49.4164C15.6901 51.0222 11.1328 49.1056 9.52735 45.1169L0.568134 23.0498C-1.03728 19.0612 0.87886 14.5027 4.8147 12.8969C8.80233 11.291 13.3596 13.2077 14.965 17.1963L23.9242 39.2635ZM32.987 45.1169L23.976 22.998C22.3706 19.0094 24.2868 14.4509 28.2744 12.8451C32.262 11.2392 36.7675 13.1559 38.3729 17.1445L47.3839 39.2635C48.9893 43.2003 47.0732 47.7588 43.0856 49.3646C39.098 50.9704 34.5925 49.0538 32.987 45.1169ZM56.3432 61.1752C57.9486 65.1638 56.0324 69.7223 52.0966 71.3281C48.109 72.9339 43.5517 71.0173 41.9463 67.0287L39.564 61.227C37.9068 57.2383 39.823 52.7316 43.8106 51.074C47.7982 49.4682 52.3037 51.3848 53.9609 55.3735L56.3432 61.1752ZM111.134 49.4164C107.198 51.0222 102.641 49.1056 101.036 45.1169L96.8409 34.705C95.2355 30.7163 97.1516 26.2097 101.087 24.6038C105.075 22.9462 109.632 24.8628 111.238 28.8515L115.433 39.2635C117.038 43.2521 115.122 47.8106 111.134 49.4164V49.4164Z" fill="white"/>
</svg>
