<svg width="150" height="148" viewBox="0 0 150 148" fill="none" xmlns="http://www.w3.org/2000/svg">
<mask id="mask0_2_94" style="mask-type:luminance" maskUnits="userSpaceOnUse" x="0" y="0" width="150" height="148">
<path d="M0 148L150 148L150 0.884995L0 0.884995L0 148Z" fill="white"/>
</mask>
<g mask="url(#mask0_2_94)">
<path opacity="0.6" d="M108.596 113.668C105.217 115.649 101.033 115.649 97.6543 113.668L68.5977 96.6347C65.2859 94.6932 63.2512 91.1416 63.2512 87.3026V52.9281C63.2512 49.0891 65.2859 45.5376 68.5979 43.5961L97.6543 26.5623C101.033 24.5819 105.217 24.5819 108.596 26.5623L137.652 43.5961C140.964 45.5376 142.999 49.0891 142.999 52.9281V87.3026C142.999 91.1416 140.964 94.6932 137.652 96.6347L108.596 113.668Z" stroke="#D38B24" stroke-width="2"/>
<path opacity="0.6" d="M-1.80288 129.622C-5.15047 131.554 -9.27259 131.554 -12.6202 129.622L-58.539 103.11C-61.8866 101.178 -63.9476 97.6068 -63.9476 93.7421V40.7194C-63.9476 36.8547 -61.8866 33.2837 -58.539 31.3513L-12.6202 4.83999C-9.2726 2.90816 -5.15049 2.90816 -1.80289 4.83999L44.1162 31.3513C47.463 33.2837 49.5248 36.8547 49.5248 40.7194V93.7421C49.5248 97.6068 47.463 101.178 44.1162 103.11L-1.80288 129.622Z" stroke="#D38B24" stroke-opacity="0.7" stroke-width="2"/>
<path opacity="0.6" d="M64.5433 181.545C61.1964 183.477 57.0728 183.477 53.726 181.545L31.5394 168.735C28.1925 166.803 26.1307 163.232 26.1307 159.367V133.748C26.1307 129.884 28.1925 126.313 31.5394 124.38L53.726 111.571C57.0728 109.639 61.1964 109.639 64.5433 111.571L86.7299 124.38C90.0767 126.313 92.1385 129.884 92.1385 133.748V159.367C92.1385 163.232 90.0767 166.803 86.7299 168.735L64.5433 181.545Z" stroke="#D38B24" stroke-opacity="0.3" stroke-width="2"/>
</g>
</svg>
