<svg width="69" height="61" viewBox="0 0 69 61" fill="none" xmlns="http://www.w3.org/2000/svg">
<path d="M39.368 60.5001C55.7298 60.5001 68.9937 47.2362 68.9937 30.8743C68.9937 14.5124 55.7298 1.24854 39.368 1.24854C23.0061 1.24854 9.74219 14.5124 9.74219 30.8743C9.74219 47.2362 23.0061 60.5001 39.368 60.5001Z" fill="#990000"/>
<path d="M64.7477 30.1258C64.7477 45.3831 52.3792 57.7516 37.1219 57.7516C21.8646 57.7516 9.49609 45.3831 9.49609 30.1258C9.49609 14.8685 21.8646 2.5 37.1219 2.5C52.3792 2.5 64.7477 14.8685 64.7477 30.1258Z" fill="white" stroke="#000" stroke-width="4"/>
<path d="M53.4175 30.126C55.8718 30.126 57.8614 28.1364 57.8614 25.6821C57.8614 23.2279 55.8718 21.2383 53.4175 21.2383C50.9632 21.2383 48.9736 23.2279 48.9736 25.6821C48.9736 28.1364 50.9632 30.126 53.4175 30.126Z" fill="#000"/>
<path d="M32.6792 30.126C35.1335 30.126 37.1231 28.1364 37.1231 25.6821C37.1231 23.2279 35.1335 21.2383 32.6792 21.2383C30.2249 21.2383 28.2354 23.2279 28.2354 25.6821C28.2354 28.1364 30.2249 30.126 32.6792 30.126Z" fill="#000"/>
<path d="M37.1259 44.9391C36.1719 44.9391 35.2328 44.4799 34.664 43.6296C33.7515 42.2728 34.1129 40.43 35.4698 39.5176C40.7995 35.9388 50.8604 36.0424 51.9921 36.0513C53.6274 36.0839 54.925 37.4349 54.8924 39.0702C54.8658 40.6848 53.5445 41.9765 51.9358 41.9765C51.7669 41.9795 51.6218 41.9735 51.4381 41.9735C48.5614 41.9735 41.8127 42.3972 38.776 44.4384C38.2694 44.7761 37.6917 44.9391 37.1259 44.9391Z" fill="#000"/>
<path d="M6.22778 18.8029L6.2274 18.8051C5.83464 21.0822 7.5873 23.1498 9.86281 23.1967C8.66229 23.2481 7.61449 23.7216 6.81787 24.6383L6.81611 24.6403C6.02629 25.5532 5.62262 26.6478 5.62262 27.8757C5.62262 29.1147 6.02083 30.2252 6.83249 31.1266L6.83438 31.1287C7.6824 32.0662 8.80724 32.5208 10.0841 32.5208C11.3592 32.5208 12.4822 32.0655 13.3316 31.131L13.3317 31.131L13.3375 31.1245C14.1482 30.2201 14.5425 29.1134 14.5425 27.8757C14.5425 26.6534 14.1483 25.556 13.35 24.638L13.3482 24.6359C12.5163 23.6835 11.4124 23.2093 10.1534 23.1925C11.9227 23.1012 13.2147 21.7852 13.629 20.2386L13.6291 20.2382C13.7755 19.6906 14.0635 19.2459 14.4936 18.7751C14.714 18.5339 14.9614 18.2967 15.2453 18.0309C15.2919 17.9873 15.3397 17.9427 15.3885 17.8972C15.6271 17.6747 15.8891 17.4303 16.1443 17.174C16.7715 16.5442 17.4266 15.7768 17.9152 14.7409C18.4066 13.6994 18.699 12.4525 18.699 10.8912C18.699 9.59712 18.4702 7.46476 17.26 5.61929C15.9915 3.68495 13.76 2.24365 10.1611 2.24365C7.93178 2.24365 6.17959 2.87497 4.83562 3.86244C3.50606 4.83934 2.64307 6.11458 2.09046 7.31357L2.09015 7.31426C1.03498 9.6073 2.57495 12.1518 4.92525 12.5666L4.92583 12.5667C6.45427 12.8357 8.15666 12.1652 8.92022 10.6428L7.8029 10.0824L8.91904 10.6452C9.04418 10.397 9.18329 10.2207 9.32264 10.1123C9.44294 10.0188 9.5909 9.95187 9.82335 9.95187C10.1067 9.95187 10.2377 10.0152 10.2932 10.0505C10.3518 10.0877 10.4112 10.1482 10.469 10.2631C10.6066 10.5366 10.6472 10.9356 10.6472 11.303C10.6472 12.1033 10.2523 12.4888 9.18589 13.5301C9.16068 13.5547 9.13509 13.5797 9.10911 13.6051C8.02711 14.6621 6.69992 16.0941 6.22778 18.8029Z" fill="#000" stroke="white" stroke-width="2.5"/>
</svg>
