<svg width="1442" height="736" viewBox="0 0 1442 736" fill="none" xmlns="http://www.w3.org/2000/svg">
<g clip-path="url(#clip0_1_7)">
<rect width="1441.8" height="735.015" transform="translate(0 0.0292969)" fill="white"/>
<g opacity="0.15" clip-path="url(#clip1_1_7)">
<mask id="mask0_1_7" style="mask-type:luminance" maskUnits="userSpaceOnUse" x="1" y="-352" width="1438" height="1439">
<path d="M1439 -351.971H1V1086.03H1439V-351.971Z" fill="white"/>
</mask>
<g mask="url(#mask0_1_7)">
<path d="M1703.12 70.0582C1233.7 -221.33 1046.11 -205.564 961.009 -140.009C784.128 -3.75809 1009.11 379.048 789.599 610.339C621.065 787.921 266.762 795.842 46.4408 662.682C-85.1885 583.127 -160.671 458.245 -221.89 356.963C-300.3 227.239 -339.913 106.248 -361.088 21.6217" stroke="#F2F2F2" stroke-miterlimit="10"/>
<path d="M1698.59 51.3612C1542.07 -47.9174 1415.87 -110.894 1316.02 -148.863C1116.98 -224.568 1013.79 -203.658 955.419 -160.162C836.743 -71.7261 890.464 123.624 877.429 312.262C870.648 410.393 847.632 505.094 772.239 584.8C668.813 694.053 495.976 739.937 326.806 728.272C285.394 725.421 244.18 719.118 204.357 709.242C141.083 693.509 81.9999 668.776 30.2172 636.922C-98.5677 557.699 -172.878 435.151 -232.843 335.269C-309.615 207.488 -348.332 88.3417 -368.988 4.91094" stroke="#EFEFEF" stroke-miterlimit="10"/>
<path d="M1694.07 32.6641C1537.72 -68.618 1410.63 -131.526 1311.5 -169.076C1114.1 -243.881 1009.89 -223.63 949.83 -180.315C829.247 -93.3464 878.315 100.031 862.244 287.011C853.8 385.258 831.031 478.491 754.879 559.261C651.31 668.939 478.69 715.597 309.579 704.299C268.131 701.538 226.85 695.29 187.048 685.217C123.605 669.079 65.2737 643.273 13.9937 611.161C-111.952 532.292 -185.085 412.056 -243.797 313.575C-318.929 187.736 -356.751 70.4348 -376.887 -11.8006" stroke="#EBEBEB" stroke-miterlimit="10"/>
<path d="M1689.54 13.9672C1533.38 -89.318 1405.39 -152.158 1306.97 -189.289C1111.21 -263.194 1006 -243.596 944.241 -200.468C821.779 -114.946 866.126 76.4535 847.06 261.761C836.938 360.135 814.43 451.887 737.52 533.723C633.808 643.824 461.405 691.258 292.353 680.325C250.869 677.655 209.521 671.462 169.74 661.191C106.127 644.648 48.5498 617.775 -2.22885 585.4C-125.342 506.907 -197.29 388.961 -254.749 291.88C-328.242 167.985 -365.169 52.5283 -384.785 -28.5113" stroke="#E8E8E8" stroke-miterlimit="10"/>
<path d="M1685.01 -4.72969C1529.03 -110.018 1400.15 -172.79 1302.45 -209.501C1108.32 -282.507 1002.12 -263.555 938.651 -220.621C814.335 -136.524 853.896 52.8904 831.875 236.51C820.06 335.021 797.829 425.284 720.16 508.184C616.306 618.71 444.119 666.918 275.125 656.352C233.606 653.773 192.191 647.634 152.431 637.166C88.6487 620.218 31.8264 592.283 -18.4527 559.64C-138.74 481.544 -209.497 365.866 -265.702 270.186C-337.557 148.234 -373.587 34.6217 -392.685 -45.2226" stroke="#E4E4E4" stroke-miterlimit="10"/>
<path d="M1680.49 -23.4265C1524.69 -130.718 1394.91 -193.422 1297.92 -229.714C1105.43 -301.82 998.251 -283.507 933.062 -240.773C806.917 -158.082 841.626 29.3403 816.69 211.259C803.167 309.918 781.228 398.681 702.801 482.646C598.803 593.596 426.834 642.578 257.899 632.379C216.343 629.89 174.862 623.807 135.123 613.141C71.171 595.787 15.1045 566.796 -34.6756 533.879C-152.144 456.204 -221.703 342.771 -276.655 248.491C-346.871 128.483 -382.005 16.7152 -400.584 -61.9336" stroke="#E1E1E1" stroke-miterlimit="10"/>
<path d="M1675.96 -42.1234C1520.34 -151.418 1389.67 -214.054 1293.39 -249.926C1102.54 -321.133 994.393 -303.451 927.472 -260.926C799.52 -179.619 829.314 5.80114 801.506 186.009C786.257 284.823 764.627 372.078 685.441 457.107C581.301 568.481 409.549 618.238 240.672 608.407C199.08 606.008 157.533 599.979 117.814 589.116C53.6929 571.357 -1.61658 541.315 -50.8991 508.118C-165.555 430.887 -233.91 319.677 -287.608 226.797C-356.185 108.731 -390.424 -1.1913 -408.483 -78.6446" stroke="#DEDEDE" stroke-miterlimit="10"/>
<path d="M1671.43 -60.8204C1516 -172.119 1384.43 -234.686 1288.87 -270.139C1099.65 -340.445 990.544 -323.387 921.882 -281.079C792.142 -201.136 816.959 -17.7293 786.32 160.758C769.33 259.735 748.025 345.474 668.081 431.568C563.798 543.367 392.263 593.898 223.444 584.433C181.817 582.125 140.203 576.151 100.505 565.09C36.2149 546.927 -18.3368 515.84 -67.1224 482.358C-178.975 405.592 -246.116 296.582 -298.561 205.103C-365.499 88.9801 -398.843 -19.0979 -416.382 -95.3559" stroke="#DADADA" stroke-miterlimit="10"/>
<path d="M1666.9 -79.5171C1511.65 -192.819 1379.19 -255.317 1284.34 -290.352C1096.76 -359.758 986.705 -343.315 916.293 -301.232C784.784 -222.632 804.563 -41.2513 771.136 135.507C752.386 234.654 731.425 318.871 650.721 406.03C546.296 518.252 374.978 569.559 206.217 560.46C164.554 558.243 122.873 552.323 83.1964 541.065C18.7369 522.496 -35.0564 490.371 -83.3456 456.598C-192.403 380.322 -258.323 273.487 -309.514 183.409C-374.813 69.2294 -407.261 -37.0041 -424.281 -112.066" stroke="#D7D7D7" stroke-miterlimit="10"/>
<path d="M1662.38 -98.2143C1507.31 -213.519 1373.96 -275.95 1279.82 -310.565C1093.87 -379.071 982.873 -363.234 910.704 -321.384C777.442 -244.109 792.125 -64.7682 755.951 110.256C735.422 209.578 714.823 292.268 633.362 380.491C528.794 493.138 357.692 545.219 188.99 536.487C147.291 534.36 105.519 528.582 65.8874 517.04C1.2177 498.206 -51.7763 464.909 -99.5691 430.837C-205.84 355.074 -270.529 250.392 -320.467 161.714C-384.128 49.478 -415.679 -54.911 -432.18 -128.778" stroke="#D3D3D3" stroke-miterlimit="10"/>
<path d="M1657.85 -116.911C1502.97 -234.219 1368.72 -296.582 1275.29 -330.777C1090.99 -398.384 979.049 -383.145 905.114 -341.537C770.117 -265.567 779.646 -88.2809 740.766 85.0053C718.441 184.507 698.222 265.664 616.002 354.952C511.292 468.023 340.406 520.879 171.763 512.514C130.029 510.478 88.1874 504.76 48.5791 493.014C-16.2638 473.786 -68.4954 439.453 -115.792 405.076C-219.287 329.851 -282.735 227.297 -331.42 140.02C-393.441 29.7266 -424.098 -72.8175 -440.079 -145.489" stroke="#D0D0D0" stroke-miterlimit="10"/>
<path d="M1653.32 -135.608C1498.62 -254.919 1363.48 -317.213 1270.77 -350.99C1088.1 -417.697 975.233 -403.046 899.525 -361.69C762.805 -287.006 767.125 -111.791 725.581 59.7546C701.44 159.438 681.621 239.061 598.642 329.414C493.789 442.909 323.121 496.539 154.536 488.541C112.765 486.595 70.8554 480.938 31.2702 468.989C-33.7455 449.365 -85.2159 414.005 -132.016 379.315C-232.744 304.652 -294.942 204.202 -342.373 118.326C-402.756 9.97565 -432.516 -90.724 -447.978 -162.2" stroke="#CCCCCC" stroke-miterlimit="10"/>
<path d="M1648.8 -154.305C1494.28 -275.619 1358.24 -337.845 1266.24 -371.202C1085.21 -437.01 971.422 -422.939 893.935 -381.843C755.506 -308.426 754.564 -135.301 710.396 34.5039C684.419 134.372 665.019 212.458 581.282 303.875C476.287 417.794 305.835 472.199 137.309 464.568C95.5024 462.713 53.5238 457.115 13.9612 444.964C-51.2273 424.943 -101.937 388.564 -148.239 353.555C-246.212 279.478 -306.972 181.011 -353.326 96.6315C-411.848 -9.89752 -440.935 -108.63 -455.877 -178.91" stroke="#C9C9C9" stroke-miterlimit="10"/>
<path d="M1644.27 -173.002C1489.93 -296.32 1353 -358.477 1261.72 -391.415C1082.32 -456.323 967.618 -442.822 888.346 -401.996C748.219 -329.828 741.963 -158.812 695.212 9.25321C667.38 109.306 648.419 185.855 563.923 278.336C458.784 392.68 288.55 447.86 120.082 440.595C78.2399 438.83 36.1931 433.291 -3.34706 420.939C-68.7079 400.52 -118.659 363.131 -164.462 327.794C-259.691 254.328 -319.166 157.91 -364.279 74.9367C-421.146 -29.6565 -449.353 -126.537 -463.776 -195.622" stroke="#C6C6C6" stroke-miterlimit="10"/>
<path d="M1639.74 -191.699C1485.59 -317.02 1347.76 -379.109 1257.19 -411.628C1079.43 -475.636 963.82 -462.696 882.756 -422.148C740.942 -351.213 729.322 -182.327 680.027 -15.9975C650.319 84.2403 631.818 159.252 546.563 252.798C441.282 367.565 271.264 423.52 102.855 416.622C60.977 414.948 18.8617 409.467 -20.6559 396.914C-86.189 376.096 -135.382 337.705 -180.686 302.034C-273.182 229.203 -331.361 134.811 -375.232 53.2428C-430.446 -49.4137 -457.771 -144.443 -471.675 -212.333" stroke="#C2C2C2" stroke-miterlimit="10"/>
<path d="M1635.22 -210.396C1481.24 -337.72 1342.52 -399.741 1252.67 -431.84C1076.54 -494.949 960.027 -482.561 877.167 -442.301C733.675 -372.582 716.642 -205.845 664.842 -41.2485C633.239 59.1725 615.216 132.648 529.204 227.259C423.78 342.45 253.979 399.18 85.628 392.648C43.7141 391.065 1.53063 385.642 -37.9646 372.888C-103.67 351.67 -152.108 312.287 -196.909 276.273C-286.686 204.102 -343.555 111.711 -386.185 31.548C-439.746 -69.1713 -466.19 -162.35 -479.574 -229.044" stroke="#BFBFBF" stroke-miterlimit="10"/>
<path d="M1630.69 -229.093C1476.9 -358.42 1337.28 -420.373 1248.14 -452.053C1073.65 -514.262 956.238 -502.417 871.577 -462.454C726.416 -393.934 703.925 -229.37 649.657 -66.4992C616.137 34.1021 598.615 106.045 511.844 201.72C406.277 317.336 236.693 374.84 68.4007 368.676C26.4508 367.183 -15.8005 361.817 -55.2736 348.863C-121.15 327.245 -168.837 286.879 -213.132 250.513C-300.203 179.027 -355.751 88.6118 -397.138 9.854C-449.047 -88.9274 -474.608 -180.257 -487.474 -245.755" stroke="#BBBBBB" stroke-miterlimit="10"/>
<path d="M1626.16 -247.79C1472.55 -379.12 1332.04 -441.005 1243.62 -472.265C1070.76 -533.575 952.454 -522.263 865.988 -482.607C719.165 -415.269 691.172 -252.903 634.472 -91.7502C599.015 9.02716 582.014 79.4414 494.484 176.181C388.775 292.221 219.408 350.5 51.1739 344.702C9.1883 343.3 -33.1309 337.99 -72.5821 324.837C-138.63 302.817 -185.569 261.479 -229.356 224.751C-313.735 153.976 -367.947 65.5127 -408.091 -11.8408C-458.349 -108.683 -483.027 -198.163 -495.373 -262.466" stroke="#B8B8B8" stroke-miterlimit="10"/>
<path d="M1621.63 -266.487C1468.21 -399.82 1326.8 -461.637 1239.09 -492.478C1067.88 -552.888 948.674 -542.1 860.399 -502.76C711.921 -436.59 678.384 -276.445 619.288 -117.001C581.872 -16.0528 565.413 52.8378 477.124 150.642C371.273 267.107 202.122 326.16 33.9469 320.729C-8.07464 319.417 -50.4611 314.163 -89.8905 300.812C-156.11 278.389 -202.304 236.089 -245.578 198.991C-327.28 128.95 -380.144 42.4145 -419.044 -33.5355C-467.652 -128.439 -491.445 -216.07 -503.272 -279.177" stroke="#B5B5B5" stroke-miterlimit="10"/>
<path d="M1617.11 -285.183C1463.86 -420.52 1321.56 -482.269 1234.56 -512.691C1064.99 -572.201 944.898 -561.928 854.809 -522.912C704.681 -457.896 665.561 -299.997 604.103 -142.252C564.709 -41.1387 548.812 26.2347 459.765 125.104C353.77 241.993 184.837 301.821 16.7197 296.756C-25.3375 295.535 -67.7916 290.336 -107.199 276.787C-173.59 253.96 -219.045 210.708 -261.802 173.23C-340.842 103.949 -392.341 19.3171 -429.997 -55.2294C-476.956 -148.193 -499.864 -233.977 -511.171 -295.888" stroke="#B1B1B1" stroke-miterlimit="10"/>
<path d="M1612.58 -303.88C1459.52 -441.221 1316.32 -502.901 1230.04 -532.903C1062.1 -591.514 941.125 -581.746 849.22 -543.065C697.448 -479.187 652.706 -323.561 588.918 -167.503C547.525 -66.2324 532.21 -0.368537 442.405 99.5653C336.268 216.878 167.551 277.481 -0.507304 272.783C-42.6004 271.652 -85.1218 266.508 -124.508 252.761C-191.069 229.53 -235.791 185.338 -278.025 147.469C-354.42 78.9722 -404.54 -3.78008 -440.95 -76.9239C-486.26 -167.947 -508.282 -251.883 -519.069 -312.599" stroke="#AEAEAE" stroke-miterlimit="10"/>
<path d="M1608.05 -322.577C1455.18 -461.921 1311.08 -523.533 1225.51 -553.116C1059.21 -610.827 937.354 -601.556 843.63 -563.218C690.219 -500.464 639.819 -347.138 573.733 -192.753C530.32 -91.3347 515.61 -26.9718 425.045 74.0267C318.765 191.763 150.266 253.141 -17.7343 248.81C-59.8633 247.77 -102.451 242.68 -141.817 228.737C-208.547 205.099 -252.543 159.978 -294.248 121.709C-368.015 54.0204 -416.739 -26.8761 -451.903 -98.6182C-495.566 -187.699 -516.7 -269.79 -526.968 -329.31" stroke="#AAAAAA" stroke-miterlimit="10"/>
<path d="M1603.53 -341.274C1450.83 -482.621 1305.84 -544.165 1220.99 -573.329C1056.32 -630.139 933.587 -621.357 838.041 -583.37C682.993 -521.728 626.903 -370.73 558.549 -218.004C513.095 -116.446 499.009 -53.575 407.686 48.4882C301.263 166.649 132.981 228.801 -34.9609 224.837C-77.1256 223.887 -119.781 218.852 -159.125 204.711C-226.025 180.667 -269.303 134.629 -310.471 95.9485C-381.628 29.0927 -428.938 -49.972 -462.855 -120.312C-504.872 -207.451 -525.118 -287.696 -534.867 -346.021" stroke="#A7A7A7" stroke-miterlimit="10"/>
<path d="M1599 -359.971C1446.49 -503.321 1300.6 -564.797 1216.46 -593.541C1053.43 -649.453 929.822 -641.149 832.451 -603.524C675.771 -542.98 613.958 -394.338 543.364 -243.255C495.85 -141.569 482.407 -80.1784 390.326 22.9492C283.761 141.534 115.695 204.461 -52.1885 200.863C-94.3892 200.005 -137.111 195.022 -176.434 180.686C-243.504 156.234 -286.071 109.292 -326.695 70.1878C-395.259 4.18849 -441.14 -73.0669 -473.809 -142.007C-514.181 -227.202 -533.537 -305.602 -542.767 -362.732" stroke="#A3A3A3" stroke-miterlimit="10"/>
<path d="M1594.47 -378.668C1442.14 -524.021 1295.36 -585.429 1211.94 -613.754C1050.54 -668.766 926.059 -660.933 826.861 -623.676C668.551 -564.218 600.986 -417.961 528.179 -268.506C478.586 -166.704 465.806 -106.782 372.966 -2.5893C266.258 116.42 98.409 180.122 -69.4157 176.891C-111.652 176.122 -154.44 171.192 -193.743 156.661C-260.982 131.801 -302.849 83.9668 -342.919 44.4273C-408.911 -20.6923 -453.342 -96.1611 -484.762 -163.701C-523.491 -246.953 -541.956 -323.509 -550.666 -379.443" stroke="#A0A0A0" stroke-miterlimit="10"/>
<path d="M1589.95 -397.365C1437.8 -544.721 1290.13 -606.061 1207.41 -633.967C1047.65 -688.078 922.297 -680.708 821.272 -643.829C661.334 -585.445 587.99 -441.603 512.994 -293.756C461.302 -191.851 449.205 -133.385 355.606 -28.128C248.756 91.3054 81.1236 155.782 -86.6427 152.917C-128.915 152.239 -171.769 147.361 -211.052 132.635C-278.459 107.366 -319.638 58.6542 -359.142 18.6666C-422.582 -45.5505 -465.546 -119.255 -495.715 -185.395C-532.803 -266.702 -550.374 -341.416 -558.565 -396.154" stroke="#9D9D9D" stroke-miterlimit="10"/>
<path d="M1585.42 -416.062C1433.45 -565.422 1284.89 -626.693 1202.89 -654.179C1044.77 -707.391 918.538 -700.474 815.682 -663.982C654.118 -606.66 574.97 -465.263 497.809 -319.007C443.999 -217.013 432.604 -159.988 338.246 -53.6668C231.253 66.1908 63.838 131.442 -103.87 128.944C-146.178 128.357 -189.098 123.53 -228.36 108.61C-295.936 82.9303 -336.44 33.3544 -375.365 -7.09425C-436.274 -70.3867 -477.75 -142.348 -506.668 -207.09C-542.116 -286.451 -558.793 -359.322 -566.464 -412.866" stroke="#999999" stroke-miterlimit="10"/>
<path d="M1580.89 -434.759C1429.11 -586.122 1279.65 -647.324 1198.36 -674.392C1041.88 -726.704 914.78 -720.232 810.093 -684.135C646.904 -627.864 561.928 -488.941 482.625 -344.258C426.679 -242.188 416.003 -186.591 320.887 -79.2051C213.751 41.0767 46.5527 107.102 -121.097 104.971C-163.44 104.475 -206.426 99.6988 -245.669 84.5848C-313.413 58.494 -353.255 8.06883 -391.588 -32.8546C-449.989 -95.2009 -489.956 -165.44 -517.621 -228.784C-551.43 -306.198 -567.211 -377.229 -574.363 -429.576" stroke="#969696" stroke-miterlimit="10"/>
<path d="M1576.37 -453.456C1424.76 -606.822 1274.41 -667.956 1193.84 -694.604C1038.99 -746.017 911.023 -739.982 804.504 -704.287C639.691 -649.058 548.865 -512.64 467.44 -369.509C409.339 -267.379 399.401 -213.195 303.527 -104.744C196.249 15.962 29.2671 82.7622 -138.324 80.9981C-180.704 80.592 -223.755 75.8664 -262.978 60.5592C-330.889 34.0563 -370.087 -17.2035 -407.812 -58.6156C-463.727 -119.995 -502.164 -188.531 -528.574 -250.479C-560.747 -325.944 -575.629 -395.135 -582.262 -446.288" stroke="#929292" stroke-miterlimit="10"/>
<path d="M1571.84 -472.152C1420.42 -627.522 1269.17 -688.588 1189.31 -714.817C1036.1 -765.33 907.267 -759.724 798.914 -724.44C632.477 -670.241 535.783 -536.359 452.255 -394.76C391.983 -292.586 382.8 -239.798 286.167 -130.283C178.746 -9.15238 11.9813 58.4227 -155.551 57.0253C-197.966 56.7098 -241.083 52.0342 -280.287 36.5343C-348.364 9.61841 -386.936 -42.4599 -424.035 -84.3756C-477.489 -144.769 -514.373 -211.621 -539.527 -272.172C-570.066 -345.689 -584.048 -413.041 -590.161 -462.998" stroke="#8F8F8F" stroke-miterlimit="10"/>
<path d="M1567.31 -490.849C1416.08 -648.222 1263.93 -709.22 1184.79 -735.03C1033.21 -784.643 903.512 -779.459 793.325 -744.593C625.265 -691.414 522.685 -560.099 437.07 -420.01C374.61 -317.81 366.199 -266.401 268.808 -155.821C161.244 -34.267 -5.30394 34.0828 -172.778 33.0521C-215.229 32.8272 -258.411 28.2011 -297.595 12.5091C-365.84 -14.8207 -403.805 -67.7017 -440.258 -110.136C-491.275 -169.524 -526.585 -234.711 -550.48 -293.867C-579.388 -365.434 -592.466 -430.948 -598.06 -479.709" stroke="#8C8C8C" stroke-miterlimit="10"/>
<path d="M1562.78 -509.546C1411.73 -668.922 1258.69 -729.852 1180.26 -755.243C1030.32 -803.956 899.757 -799.186 787.735 -764.746C618.052 -712.578 509.571 -583.861 421.885 -445.261C357.222 -343.052 349.598 -293.005 251.448 -181.36C143.742 -59.3814 -22.5896 9.743 -190.005 9.07922C-232.492 8.94491 -275.739 4.36802 -314.904 -11.5161C-383.315 -39.2606 -420.698 -92.9274 -456.482 -135.897C-505.089 -194.263 -538.799 -257.799 -561.433 -315.561C-588.712 -385.176 -600.885 -448.855 -605.959 -496.42" stroke="#888888" stroke-miterlimit="10"/>
</g>
<mask id="mask1_1_7" style="mask-type:luminance" maskUnits="userSpaceOnUse" x="1" y="-352" width="1438" height="1439">
<path d="M1439 -351.971H1V1086.03H1439V-351.971Z" fill="white"/>
</mask>
<g mask="url(#mask1_1_7)">
<path d="M-172.975 1165.58C350.549 1342.17 529.59 1284.02 597.491 1200.78C738.618 1027.77 432.231 706.39 593.175 431.116C716.746 219.764 1059.9 131.213 1304.79 210.59C1451.1 258.013 1553.08 362.378 1635.8 447.021C1741.74 555.433 1807.91 664.194 1847.84 741.756" stroke="#F2F2F2" stroke-miterlimit="10"/>
<path d="M-164.301 1182.75C10.7494 1243.7 147.985 1276.22 253.863 1290.4C464.923 1318.7 560.627 1274.79 607.531 1219.13C702.899 1105.95 606.023 928.006 575.673 741.37C559.885 644.28 560.686 546.826 615.904 452.02C728.426 259.192 1022.94 168.122 1258.69 213.711C1279.83 217.803 1300.5 222.992 1320.52 229.315C1360.88 242.075 1397.91 259.213 1432.11 279.189C1521.02 331.09 1590.21 401.992 1649.4 462.634C1754.65 570.513 1820.02 678.966 1859.34 756.224" stroke="#EFEFEF" stroke-miterlimit="10"/>
<path d="M-155.628 1199.92C19.7023 1262.86 157.793 1295.11 262.881 1309.05C472.142 1336.84 568.982 1293.35 617.572 1237.47C715.13 1125.29 623.235 948.205 596.219 762.489C582.024 664.908 582.919 568.939 638.633 472.924C750.278 281.222 1040.98 189.622 1274.89 233.046C1295.85 236.945 1316.36 241.928 1336.25 248.039C1376.3 260.377 1413.12 277.068 1447.15 296.684C1535.72 347.664 1604.35 418.075 1662.99 478.246C1767.57 585.594 1832.13 693.737 1870.84 770.692" stroke="#EBEBEB" stroke-miterlimit="10"/>
<path d="M-146.954 1217.09C28.6554 1282.02 167.602 1314 271.899 1327.7C479.361 1354.99 577.325 1311.9 627.612 1255.82C727.33 1144.61 640.481 968.379 616.764 783.609C604.173 685.521 605.152 591.053 661.362 493.828C772.13 303.251 1059.03 211.121 1291.08 252.381C1311.87 256.088 1332.23 260.865 1351.97 266.763C1391.72 278.679 1428.32 294.924 1462.19 314.178C1550.43 364.239 1618.49 434.159 1676.59 493.859C1780.48 600.674 1844.24 708.509 1882.35 785.16" stroke="#E8E8E8" stroke-miterlimit="10"/>
<path d="M-138.28 1234.26C37.6083 1301.18 177.411 1332.89 280.917 1346.34C486.58 1373.13 585.655 1330.45 637.652 1274.16C739.5 1163.92 657.765 988.53 637.31 804.729C626.336 706.121 627.386 613.167 684.091 514.732C793.983 325.282 1077.08 232.62 1307.28 271.716C1327.9 275.231 1348.1 279.801 1367.7 285.488C1407.14 296.981 1443.53 312.779 1477.23 331.673C1565.13 380.814 1632.63 450.243 1690.19 509.472C1793.4 615.754 1856.35 723.281 1893.85 799.628" stroke="#E4E4E4" stroke-miterlimit="10"/>
<path d="M-129.607 1251.43C46.561 1320.35 187.219 1351.79 289.935 1364.99C493.799 1391.28 593.973 1348.99 647.692 1292.51C751.642 1183.22 675.085 1008.66 657.856 825.85C648.511 726.708 649.619 635.281 706.819 535.637C815.835 347.312 1095.12 254.12 1323.48 291.051C1343.92 294.374 1363.96 298.738 1383.43 304.213C1422.56 315.283 1458.73 330.635 1492.28 349.168C1579.84 397.39 1646.77 466.327 1703.79 525.085C1806.31 630.836 1868.46 738.053 1905.35 814.096" stroke="#E1E1E1" stroke-miterlimit="10"/>
<path d="M-120.933 1268.6C55.514 1339.51 197.028 1370.68 298.952 1383.64C501.018 1409.42 602.279 1367.53 657.732 1310.86C763.758 1202.5 692.444 1028.77 678.401 846.97C670.701 747.283 671.641 657.273 729.549 556.54C837.294 369.115 1113.17 275.618 1339.67 310.385C1359.94 313.516 1379.83 317.674 1399.16 322.937C1437.98 333.585 1473.94 348.491 1507.32 366.663C1594.55 413.965 1660.91 482.41 1717.39 540.698C1819.23 645.915 1880.58 752.824 1916.86 828.564" stroke="#DEDEDE" stroke-miterlimit="10"/>
<path d="M-112.26 1285.78C64.467 1358.67 206.837 1389.57 307.97 1402.28C508.238 1427.56 610.575 1386.06 667.773 1329.2C775.851 1221.77 709.841 1048.86 698.947 868.089C692.906 767.846 693.844 679.37 752.278 577.444C859.098 391.118 1131.22 297.117 1355.87 329.72C1375.96 332.659 1395.7 336.61 1414.89 341.661C1453.41 351.887 1489.14 366.346 1522.36 384.157C1609.25 430.539 1675.05 498.494 1730.99 556.31C1832.15 660.995 1892.69 767.595 1928.36 843.031" stroke="#DADADA" stroke-miterlimit="10"/>
<path d="M-103.586 1302.95C73.42 1377.84 216.645 1408.46 316.988 1420.93C515.457 1445.71 618.86 1404.59 677.813 1347.55C787.919 1241.02 727.277 1068.93 719.492 889.21C715.126 788.4 716.048 701.468 775.006 598.349C880.907 413.124 1149.26 318.617 1372.07 349.055C1391.99 351.801 1411.56 355.546 1430.62 360.386C1468.83 370.189 1504.34 384.202 1537.4 401.652C1623.96 447.115 1689.19 514.578 1744.59 571.923C1845.06 676.076 1904.8 782.368 1939.86 857.499" stroke="#D7D7D7" stroke-miterlimit="10"/>
<path d="M-94.9129 1320.12C82.3727 1397 226.454 1427.36 326.006 1439.58C522.675 1463.85 627.135 1423.11 687.853 1365.89C799.967 1260.25 744.752 1088.99 740.038 910.33C737.362 808.944 738.254 723.566 797.734 619.252C902.72 435.132 1167.31 340.116 1388.26 368.39C1408.01 370.944 1427.43 374.482 1446.35 379.111C1484.25 388.491 1519.55 402.058 1552.44 419.147C1638.66 463.69 1703.33 530.662 1758.19 587.537C1857.98 691.157 1916.91 797.14 1951.37 871.967" stroke="#D3D3D3" stroke-miterlimit="10"/>
<path d="M-86.2392 1337.29C91.3259 1416.16 236.263 1446.25 335.024 1458.23C529.895 1482 635.402 1441.62 697.893 1384.24C811.996 1279.47 762.267 1109.04 760.584 931.45C759.617 829.479 760.463 745.667 820.464 640.157C924.539 457.144 1185.36 361.616 1404.46 387.725C1424.03 390.087 1443.29 393.419 1462.08 397.836C1499.67 406.793 1534.75 419.913 1567.48 436.642C1653.37 480.265 1717.46 546.745 1771.79 603.149C1870.89 706.237 1929.02 811.911 1962.87 886.435" stroke="#D0D0D0" stroke-miterlimit="10"/>
<path d="M-77.5657 1354.46C100.279 1435.32 246.071 1465.14 344.042 1476.87C537.114 1500.14 643.659 1460.13 707.933 1402.59C824.007 1298.68 779.822 1129.07 781.129 952.57C781.889 850.008 782.673 767.768 843.193 661.061C946.361 479.158 1203.41 383.115 1420.66 407.06C1440.05 409.23 1459.16 412.356 1477.81 416.56C1515.09 425.095 1549.96 437.769 1582.52 454.137C1668.08 496.84 1731.6 562.829 1785.39 618.762C1883.81 721.318 1941.13 826.683 1974.37 900.904" stroke="#CCCCCC" stroke-miterlimit="10"/>
<path d="M-68.8923 1371.63C109.232 1454.49 255.88 1484.03 353.06 1495.52C544.333 1518.29 651.907 1478.62 717.974 1420.93C836 1317.87 797.416 1149.09 801.675 973.69C804.18 870.529 804.885 789.87 865.922 681.965C968.187 501.174 1221.45 404.614 1436.85 426.394C1456.08 428.372 1475.03 431.291 1493.54 435.285C1530.51 443.397 1565.16 455.624 1597.57 471.631C1682.78 513.415 1745.74 578.913 1798.99 634.375C1896.73 736.398 1953.24 841.455 1985.88 915.371" stroke="#C9C9C9" stroke-miterlimit="10"/>
<path d="M-60.2185 1388.8C118.185 1473.65 265.689 1502.93 362.078 1514.17C551.552 1536.43 660.148 1497.11 728.014 1439.28C847.979 1337.04 815.05 1169.11 822.221 994.81C826.49 891.045 827.099 811.973 888.651 702.869C990.017 523.192 1239.5 426.113 1453.05 445.729C1472.1 447.515 1490.89 450.227 1509.27 454.009C1545.93 461.699 1580.37 473.48 1612.61 489.126C1697.49 529.99 1759.88 594.996 1812.59 649.988C1909.64 751.478 1965.35 856.227 1997.38 929.839" stroke="#C6C6C6" stroke-miterlimit="10"/>
<path d="M-51.5451 1405.97C127.138 1492.81 275.498 1521.82 371.095 1532.81C558.771 1554.58 668.38 1515.6 738.054 1457.62C859.943 1356.2 832.722 1189.12 842.766 1015.93C848.819 911.559 849.314 834.078 911.38 723.774C1011.85 545.214 1257.55 447.613 1469.25 465.064C1488.12 466.658 1506.76 469.164 1524.99 472.734C1561.35 480.001 1595.57 491.336 1627.65 506.621C1712.19 546.566 1774.02 611.081 1826.19 665.601C1922.56 766.559 1977.46 870.999 2008.89 944.308" stroke="#C2C2C2" stroke-miterlimit="10"/>
<path d="M-42.8717 1423.14C136.091 1511.98 285.306 1540.71 380.113 1551.46C565.99 1572.72 676.606 1534.07 748.094 1475.97C871.894 1375.35 850.433 1209.12 863.312 1037.05C871.169 932.067 871.531 856.183 934.108 744.677C1033.69 567.236 1275.59 469.112 1485.44 484.399C1504.14 485.801 1522.63 488.063 1540.72 491.459C1576.78 498.228 1610.78 509.192 1642.69 524.116C1726.9 563.141 1788.16 627.164 1839.79 681.214C1935.47 781.64 1989.57 885.77 2020.39 958.775" stroke="#BFBFBF" stroke-miterlimit="10"/>
<path d="M-34.1979 1440.31C145.044 1531.14 295.115 1559.6 389.131 1570.11C573.21 1590.86 684.825 1552.54 758.135 1494.32C883.833 1394.48 868.182 1229.13 883.858 1058.17C893.54 952.574 893.75 878.29 956.838 765.582C1055.53 589.261 1293.64 490.611 1501.64 503.734C1520.17 504.943 1538.5 506.998 1556.45 510.183C1592.2 516.527 1625.98 527.047 1657.73 541.611C1741.61 579.716 1802.3 643.248 1853.39 696.827C1948.39 796.72 2001.68 900.542 2031.89 973.243" stroke="#BBBBBB" stroke-miterlimit="10"/>
<path d="M-25.5245 1457.48C153.997 1550.3 304.924 1578.49 398.149 1588.75C580.429 1609.01 693.037 1571 768.175 1512.66C895.761 1413.6 885.969 1249.13 904.403 1079.29C915.931 973.081 915.971 900.397 979.566 786.486C1077.38 611.288 1311.69 512.111 1517.83 523.068C1536.19 524.086 1554.37 525.932 1572.18 528.908C1607.62 534.826 1641.18 544.903 1672.77 559.105C1756.31 596.291 1816.44 659.332 1866.99 712.44C1961.3 811.8 2013.79 915.314 2043.4 987.711" stroke="#B8B8B8" stroke-miterlimit="10"/>
<path d="M-16.851 1474.65C162.949 1569.47 314.732 1597.39 407.166 1607.4C587.648 1627.15 701.244 1589.45 778.215 1531.01C907.679 1432.71 903.791 1269.13 924.949 1100.41C938.344 993.588 938.194 922.506 1002.29 807.39C1099.22 633.317 1329.73 533.61 1534.03 542.403C1552.21 543.229 1570.23 544.868 1587.91 547.632C1623.04 553.127 1656.39 562.759 1687.81 576.6C1771.02 612.866 1830.58 675.416 1880.59 728.053C1974.22 826.881 2025.91 930.086 2054.9 1002.18" stroke="#B5B5B5" stroke-miterlimit="10"/>
<path d="M-8.17761 1491.83C171.902 1588.63 324.541 1616.28 416.184 1626.05C594.867 1645.3 709.444 1607.89 788.255 1549.35C919.588 1451.8 921.649 1289.14 945.494 1121.53C960.779 1014.1 960.42 944.616 1025.02 828.294C1121.08 655.348 1347.78 555.109 1550.23 561.738C1568.23 562.371 1586.1 563.803 1603.64 566.357C1638.46 571.427 1671.59 580.615 1702.86 594.095C1785.72 629.442 1844.71 691.499 1894.19 743.666C1987.14 841.962 2038.02 944.858 2066.4 1016.65" stroke="#B1B1B1" stroke-miterlimit="10"/>
<path d="M0.496109 1509C180.855 1607.79 334.349 1635.17 425.202 1644.7C602.086 1663.44 717.64 1626.33 798.295 1567.7C931.489 1470.88 939.542 1309.15 966.04 1142.65C983.235 1034.61 982.647 966.727 1047.75 849.198C1142.93 677.381 1365.83 576.609 1566.42 581.073C1584.26 581.514 1601.97 582.739 1619.37 585.082C1653.88 589.727 1686.77 598.533 1717.9 611.59C1800.36 646.182 1858.85 707.583 1907.79 759.279C2000.05 857.042 2050.13 959.63 2077.91 1031.12" stroke="#AEAEAE" stroke-miterlimit="10"/>
<path d="M9.16956 1526.17C189.808 1626.95 344.158 1654.06 434.22 1663.34C609.305 1681.59 725.831 1644.76 808.335 1586.04C943.382 1489.94 957.468 1329.16 986.586 1163.77C1005.71 1055.12 1004.88 988.839 1070.48 870.102C1164.79 699.415 1383.87 598.108 1582.62 600.408C1600.28 600.657 1617.83 601.675 1635.1 603.806C1669.3 608.029 1701.98 616.389 1732.94 629.085C1815.07 662.759 1872.99 723.667 1921.39 774.891C2012.97 872.122 2062.24 974.401 2089.41 1045.58" stroke="#AAAAAA" stroke-miterlimit="10"/>
<path d="M17.843 1543.34C198.761 1646.12 353.967 1672.96 443.238 1681.99C616.524 1699.73 734.017 1663.18 818.376 1604.39C955.268 1509 975.427 1349.18 1007.13 1184.89C1028.21 1075.64 1027.11 1010.95 1093.21 891.006C1186.65 721.451 1401.92 619.607 1598.82 619.743C1616.3 619.8 1633.7 620.611 1650.83 622.531C1684.72 626.33 1717.18 634.245 1747.98 646.579C1829.77 679.336 1887.13 739.751 1934.99 790.504C2025.88 887.203 2074.35 989.173 2100.92 1060.05" stroke="#A7A7A7" stroke-miterlimit="10"/>
<path d="M26.5167 1560.51C207.714 1665.28 363.775 1691.85 452.256 1700.64C623.743 1717.87 742.198 1681.59 828.416 1622.74C967.149 1528.04 993.417 1369.22 1027.68 1206.01C1050.74 1096.17 1049.34 1033.07 1115.94 911.91C1208.52 743.489 1419.97 641.106 1615.01 639.078C1632.32 638.942 1649.56 639.547 1666.56 641.255C1700.14 644.632 1732.39 652.101 1763.02 664.074C1844.48 695.911 1901.27 755.834 1948.59 806.117C2038.8 902.283 2086.46 1003.94 2112.42 1074.52" stroke="#A3A3A3" stroke-miterlimit="10"/>
<path d="M35.1902 1577.68C216.667 1684.44 373.584 1710.74 461.273 1719.28C630.962 1736.02 750.376 1699.99 838.456 1641.08C979.024 1547.07 1011.44 1389.26 1048.22 1227.13C1073.28 1116.7 1071.58 1055.18 1138.67 932.814C1230.38 765.528 1438.01 662.606 1631.21 658.412C1648.35 658.085 1665.43 658.483 1682.28 659.979C1715.56 662.934 1747.59 669.956 1778.06 681.569C1859.19 712.485 1915.41 771.918 1962.19 821.73C2051.72 917.364 2098.57 1018.72 2123.92 1088.99" stroke="#A0A0A0" stroke-miterlimit="10"/>
<path d="M43.8636 1594.85C225.62 1703.61 383.393 1729.63 470.291 1737.93C638.181 1754.16 758.55 1718.38 848.496 1659.43C990.894 1566.09 1029.48 1409.31 1068.77 1248.25C1095.85 1137.24 1093.82 1077.3 1161.4 953.719C1252.25 787.569 1456.06 684.105 1647.41 677.747C1664.37 677.228 1681.29 677.42 1698.01 678.704C1730.98 681.237 1762.8 687.811 1793.11 699.064C1873.9 729.059 1929.55 788.002 1975.79 837.343C2064.63 932.444 2110.68 1033.49 2135.42 1103.45" stroke="#9D9D9D" stroke-miterlimit="10"/>
<path d="M52.5373 1612.02C234.573 1722.77 393.202 1748.52 479.309 1756.58C645.401 1772.31 766.72 1736.77 858.537 1677.77C1002.76 1585.1 1047.56 1429.37 1089.31 1269.37C1118.43 1157.79 1116.06 1099.42 1184.13 974.622C1274.13 809.611 1474.11 705.604 1663.6 697.082C1680.39 696.37 1697.16 696.357 1713.74 697.429C1746.4 699.541 1778 705.666 1808.15 716.559C1888.61 745.633 1943.69 804.086 1989.39 852.956C2077.55 947.525 2122.79 1048.26 2146.93 1117.92" stroke="#999999" stroke-miterlimit="10"/>
<path d="M61.2108 1629.19C243.526 1741.93 403.01 1767.42 488.327 1775.22C652.62 1790.45 774.888 1755.15 868.577 1696.12C1014.62 1604.1 1065.66 1449.45 1109.86 1290.49C1141.04 1178.35 1138.3 1121.54 1206.85 995.527C1296 831.655 1492.15 727.103 1679.8 716.417C1696.41 715.513 1713.03 715.294 1729.47 716.154C1761.82 717.844 1793.21 723.52 1823.19 734.053C1903.31 762.204 1957.82 820.169 2002.99 868.569C2090.46 962.605 2134.9 1063.03 2158.43 1132.39" stroke="#969696" stroke-miterlimit="10"/>
<path d="M69.8842 1646.36C252.479 1761.09 412.819 1786.31 497.345 1793.87C659.839 1808.6 783.052 1773.52 878.617 1714.47C1026.48 1623.09 1083.78 1469.55 1130.4 1311.61C1163.67 1198.92 1160.55 1143.66 1229.58 1016.43C1317.88 853.701 1510.2 748.603 1696 735.751C1712.44 734.656 1728.89 734.231 1745.2 734.878C1777.24 736.148 1808.43 741.315 1838.23 751.548C1918.08 778.617 1971.96 836.253 2016.59 884.181C2103.38 977.686 2147.01 1077.8 2169.94 1146.86" stroke="#929292" stroke-miterlimit="10"/>
</g>
</g>
<g opacity="0.5" filter="url(#filter0_f_1_7)">
<rect x="3" y="218.029" width="300" height="300" rx="150" fill="#CBE9ED"/>
</g>
<g opacity="0.5" filter="url(#filter1_f_1_7)">
<rect x="1177" y="218.029" width="300" height="300" rx="150" fill="#FFD9FB"/>
</g>
</g>
<defs>
<filter id="filter0_f_1_7" x="-297" y="-81.9707" width="900" height="900" filterUnits="userSpaceOnUse" color-interpolation-filters="sRGB">
<feFlood flood-opacity="0" result="BackgroundImageFix"/>
<feBlend mode="normal" in="SourceGraphic" in2="BackgroundImageFix" result="shape"/>
<feGaussianBlur stdDeviation="150" result="effect1_foregroundBlur_1_7"/>
</filter>
<filter id="filter1_f_1_7" x="877" y="-81.9707" width="900" height="900" filterUnits="userSpaceOnUse" color-interpolation-filters="sRGB">
<feFlood flood-opacity="0" result="BackgroundImageFix"/>
<feBlend mode="normal" in="SourceGraphic" in2="BackgroundImageFix" result="shape"/>
<feGaussianBlur stdDeviation="150" result="effect1_foregroundBlur_1_7"/>
</filter>
<clipPath id="clip0_1_7">
<rect width="1441.8" height="735.015" fill="white" transform="translate(0 0.0292969)"/>
</clipPath>
<clipPath id="clip1_1_7">
<rect width="1438" height="1438" fill="white" transform="translate(1 -351.971)"/>
</clipPath>
</defs>
</svg>
